<?xml version="1.0" encoding="UTF-8"?>
<svg id="Layer_1" data-name="Layer 1" xmlns="http://www.w3.org/2000/svg" viewBox="0 0 290.5 432.91">
  <defs>
    <style>
      .cls-1 {
        stroke-linecap: round;
        stroke-linejoin: round;
        stroke-width: 5px;
      }

      .cls-1, .cls-2 {
        fill: none;
        stroke: #1a1a1a;
      }

      .cls-2 {
        stroke-miterlimit: 10;
        stroke-width: 4px;
      }

      .cls-3 {
        font-family: ArialRoundedMTBold, 'Arial Rounded MT Bold';
        font-size: 42.81px;
      }

      .cls-3, .cls-4 {
        fill: #1a1a1a;
      }

      .cls-5 {
        letter-spacing: -.05em;
      }

      .cls-6 {
        letter-spacing: -.05em;
      }
    </style>
  </defs>
  <path class="cls-4" d="M.99,342.4h175.3c1.01,0,1.83.82,1.83,1.83v42.26c0,11.37-9.23,20.61-20.61,20.61H19.77c-11.37,0-20.61-9.23-20.61-20.61v-42.26c0-1.01.82-1.83,1.83-1.83Z" transform="translate(152.42 -5.02) rotate(22.84)"/>
  <path class="cls-4" d="M261.65,192.99c1.06-4.3.74-9.07-1.48-13.77l-39.02-82.57c-4.54-9.61-15.58-14.26-25.62-10.79l-86.34,29.77c-2.72.94-5.05,2.31-6.98,3.99-2.91,2.13-5.3,5.03-6.8,8.59l-16.4,38.95c-.39.93.04,2,.97,2.39l161.56,68.05c.93.39,2-.04,2.39-.97l16.4-38.95c.65-1.54,1.07-3.11,1.33-4.69ZM186.61,135.77c-7.17-3.02-10.53-11.28-7.51-18.45s11.28-10.53,18.45-7.51c7.17,3.02,10.53,11.28,7.51,18.45s-11.28,10.53-18.45,7.51Z"/>
  <ellipse class="cls-2" cx="238.28" cy="64.66" rx="76.7" ry="23.72" transform="translate(42.34 214.88) rotate(-52.66)"/>
  <g>
    <path class="cls-4" d="M68.86,238.75c.74.31,1.09,1.17.78,1.92l-1.61,3.82c-1.99,4.73-1.75,7.54,1.43,8.89s5.46-1.59,6.94-5.1c2.92-6.93,2.43-9.46-2.4-18.87-5.39-10.55-7.81-16.49-3.27-27.26s11.88-18.68,25.84-12.8c14.73,6.2,12.67,17.24,9.15,25.6l-1.19,2.83c-.31.74-1.17,1.09-1.92.78l-10.6-4.47c-.74-.31-1.09-1.17-.78-1.92l1.28-3.05c1.85-4.4,2.01-6.92-.74-8.08s-4.44.72-6.2,4.89c-1.85,4.4-1.9,6.97,2.16,14.24,7.21,13,9.02,19.46,3.97,31.44-4.86,11.54-12.8,19.33-27.31,13.22s-14.46-16.06-9.88-26.94l1.28-3.05c.31-.74,1.17-1.09,1.92-.78l11.15,4.7Z"/>
    <path class="cls-4" d="M109.83,263.52l-7.85,14.41c-.36.66-1.16.94-1.85.65l-11.63-4.9c-.82-.35-1.14-1.34-.69-2.1l39.7-66.43c.37-.63,1.15-.88,1.82-.6l18.66,7.86c.67.28,1.03,1.01.85,1.72l-19.48,74.95c-.22.86-1.16,1.33-1.98.98l-11.86-5c-.68-.29-1.04-1.04-.84-1.75l4.56-15.86c.2-.71-.16-1.47-.84-1.75l-6.71-2.82c-.69-.29-1.49-.01-1.85.65ZM122.11,252.64c.8.34,1.72-.09,1.97-.92,2.94-9.73,7.18-23.48,9.26-30.46l-.55-.23c-2.23,4.7-10.16,19.1-15.1,28-.42.76-.09,1.71.71,2.05l3.7,1.56Z"/>
    <path class="cls-4" d="M166.45,220.19l11.37,4.79c.74.31,1.09,1.17.78,1.92l-24.56,58.31c-.31.74.04,1.6.78,1.92l14.96,6.3c.8.34,1.13,1.3.71,2.06l-5.08,9.18c-.36.65-1.16.93-1.85.64l-28-11.79c-.74-.31-1.09-1.17-.78-1.92l29.75-70.62c.31-.74,1.17-1.09,1.92-.78Z"/>
    <path class="cls-4" d="M211.82,287.45l-12.36-5.21c-.74-.31-1.6.04-1.92.78l-7.29,17.31c-.31.74.04,1.6.78,1.92l14.81,6.24c.82.34,1.14,1.33.69,2.09l-5.39,9.18c-.37.63-1.15.89-1.83.61l-27.7-11.67c-.74-.31-1.09-1.17-.78-1.92l29.75-70.62c.31-.74,1.17-1.09,1.92-.78l27.42,11.55c.74.31,1.09,1.17.78,1.92l-4.1,9.72c-.31.74-1.17,1.09-1.92.78l-13.24-5.58c-.74-.31-1.6.04-1.92.78l-5.62,13.35c-.31.74.04,1.6.78,1.92l12.36,5.21c.74.31,1.09,1.17.78,1.92l-4.1,9.72c-.31.74-1.17,1.09-1.92.78Z"/>
  </g>
  <text class="cls-3" transform="translate(22.03 301.7) rotate(22.84)"><tspan x="0" y="0" xml:space="preserve">50    </tspan><tspan class="cls-5" x="93.7" y="0">O</tspan><tspan class="cls-6" x="125.55" y="0">F</tspan><tspan x="149.44" y="0">F</tspan></text>
  <g>
    <line class="cls-1" x1="73.65" y1="321.3" x2="101.55" y2="305.45"/>
    <circle class="cls-1" cx="85.42" cy="302.16" r="1.27"/>
    <circle class="cls-1" cx="89.77" cy="325.35" r="1.27"/>
  </g>
</svg>