<?xml version="1.0" encoding="UTF-8"?>
<svg id="Layer_1" data-name="Layer 1" xmlns="http://www.w3.org/2000/svg" viewBox="0 0 333.92 497.31">
  <defs>
    <style>
      .cls-1, .cls-2 {
        stroke-linecap: round;
        stroke-linejoin: round;
        stroke-width: 5px;
      }

      .cls-1, .cls-2, .cls-3 {
        stroke: #1a1a1a;
      }

      .cls-1, .cls-3 {
        fill: none;
      }

      .cls-2, .cls-4 {
        fill: #1a1a1a;
      }

      .cls-3 {
        stroke-miterlimit: 10;
        stroke-width: 4px;
      }
    </style>
  </defs>
  <g>
    <path class="cls-4" d="M35.61,338.99c.84-1.99,2.82-2.85,4.69-2.06,1.87.79,2.64,2.8,1.8,4.79l-.21.5c-1.31,3.12-.41,4.82,1.77,5.73,2.18.92,4.03.38,5.34-2.74l4.12-9.79c1.31-3.12.44-4.88-1.74-5.8-1.87-.79-3.34-.09-4.58.93-.78.63-2.19,1.72-4.06.93-2.12-.89-2.62-3.01-1.63-5.02l8.25-17.15c.94-1.88,2.9-2.52,4.77-1.74l12.09,5.09c1.81.76,2.57,2.62,1.8,4.43-.76,1.81-2.62,2.56-4.43,1.8l-9.22-3.88-4.95,10.17.13.05c2.11-1.53,4.52-1.84,7.26-.69,5.05,2.13,6.11,6.76,3.4,13.18l-4.15,9.85c-2.94,6.98-8.11,9.5-14.84,6.66-6.73-2.84-8.54-8.29-5.6-15.28Z"/>
    <path class="cls-4" d="M63.34,350.68l9.66-22.94c2.94-6.98,8.3-9.42,15.03-6.59,6.73,2.83,8.73,8.37,5.79,15.35l-9.66,22.94c-2.94,6.98-8.3,9.42-15.03,6.58-6.73-2.84-8.73-8.37-5.79-15.35ZM77.12,356.99l10.03-23.81c1.31-3.12.44-4.88-1.74-5.8-2.18-.92-4.05-.31-5.36,2.8l-10.03,23.81c-1.31,3.12-.44,4.88,1.74,5.8,2.18.92,4.05.31,5.36-2.8Z"/>
    <path class="cls-4" d="M143.74,384.54l9.66-22.94c2.94-6.98,8.3-9.42,15.03-6.59,6.73,2.83,8.73,8.37,5.79,15.35l-9.66,22.94c-2.94,6.98-8.3,9.42-15.03,6.58-6.73-2.83-8.73-8.37-5.79-15.35ZM157.52,390.86l10.03-23.81c1.31-3.12.44-4.88-1.74-5.8-2.18-.92-4.05-.31-5.36,2.8l-10.03,23.81c-1.31,3.12-.44,4.88,1.74,5.8,2.18.92,4.05.31,5.36-2.8Z"/>
    <path class="cls-4" d="M166.23,402.6l15.65-37.15c.84-1.99,2.88-2.82,4.87-1.98l11.97,5.04c1.81.76,2.57,2.62,1.8,4.43-.76,1.81-2.62,2.56-4.43,1.8l-8.54-3.6-5.12,12.15,6.11,2.57c1.81.76,2.56,2.62,1.8,4.43s-2.62,2.57-4.43,1.8l-6.11-2.57-6.72,15.96c-.84,1.99-2.88,2.82-4.87,1.98-1.99-.84-2.82-2.88-1.98-4.87Z"/>
    <path class="cls-4" d="M187.92,411.73l15.65-37.15c.84-1.99,2.88-2.82,4.87-1.98l11.97,5.04c1.81.76,2.57,2.62,1.8,4.43-.76,1.81-2.62,2.56-4.43,1.8l-8.54-3.6-5.12,12.15,6.11,2.57c1.81.76,2.57,2.62,1.8,4.43-.76,1.81-2.62,2.57-4.43,1.8l-6.11-2.57-6.72,15.96c-.84,1.99-2.88,2.82-4.87,1.98s-2.82-2.88-1.98-4.87Z"/>
  </g>
  <path class="cls-4" d="M1.8,392.53h201.66c1.01,0,1.83.82,1.83,1.83v51.79c0,11.37-9.23,20.61-20.61,20.61H20.59C9.21,466.75-.02,457.52-.02,446.14v-51.79c0-1.01.82-1.83,1.83-1.83Z" transform="translate(174.83 -6.15) rotate(22.84)"/>
  <path class="cls-4" d="M301.12,221.12c1.21-4.94.85-10.4-1.69-15.79l-44.77-94.73c-5.21-11.02-17.87-16.36-29.4-12.38l-99.06,34.15c-3.12,1.08-5.79,2.66-8.01,4.58-3.33,2.44-6.08,5.77-7.81,9.86l-18.82,44.68c-.45,1.07.05,2.29,1.12,2.74l185.35,78.07c1.07.45,2.3-.05,2.74-1.12l18.82-44.68c.74-1.76,1.23-3.57,1.53-5.38ZM215.03,155.48c-8.23-3.46-12.09-12.94-8.62-21.17,3.46-8.23,12.94-12.09,21.17-8.62,8.23,3.46,12.09,12.94,8.62,21.17-3.46,8.23-12.94,12.09-21.17,8.62Z"/>
  <ellipse class="cls-3" cx="274.32" cy="73.89" rx="87.99" ry="27.22" transform="translate(49.17 247.16) rotate(-52.66)"/>
  <g>
    <path class="cls-4" d="M79.94,273.62c.85.36,1.26,1.34.9,2.2l-1.85,4.38c-2.28,5.42-2.01,8.66,1.64,10.2,3.78,1.59,6.26-1.82,7.96-5.85,3.35-7.95,2.79-10.85-2.76-21.65-6.18-12.11-8.96-18.92-3.75-31.28,5.05-11.98,13.63-21.43,29.65-14.68,16.9,7.12,14.53,19.78,10.5,29.37l-1.37,3.25c-.36.85-1.34,1.26-2.2.9l-12.17-5.12c-.85-.36-1.26-1.34-.9-2.2l1.47-3.5c2.13-5.04,2.3-7.94-.85-9.27-3.03-1.27-5.1.82-7.12,5.61-2.12,5.04-2.18,7.99,2.47,16.34,8.27,14.92,10.35,22.32,4.55,36.07s-14.69,22.17-31.33,15.16c-16.02-6.75-16.59-18.42-11.33-30.91l1.47-3.5c.36-.85,1.34-1.26,2.2-.9l12.8,5.39Z"/>
    <path class="cls-4" d="M126.95,302.04l-9.01,16.53c-.41.76-1.33,1.08-2.13.74l-13.34-5.62c-.94-.4-1.31-1.53-.79-2.41l45.55-76.21c.43-.72,1.32-1.01,2.09-.69l21.4,9.02c.77.32,1.18,1.16.97,1.97l-22.34,85.99c-.26.99-1.33,1.52-2.28,1.13l-13.61-5.73c-.78-.33-1.2-1.19-.96-2.01l5.23-18.2c.23-.82-.18-1.68-.96-2.01l-7.69-3.24c-.79-.33-1.71-.01-2.13.74ZM141.04,289.56c.92.39,1.97-.1,2.26-1.06,3.38-11.16,8.24-26.94,10.63-34.95l-.63-.27c-2.55,5.4-11.66,21.91-17.32,32.12-.48.87-.1,1.97.82,2.35l4.25,1.79Z"/>
    <path class="cls-4" d="M191.9,252.33l13.05,5.5c.85.36,1.26,1.34.9,2.2l-28.18,66.9c-.36.85.04,1.84.9,2.2l17.16,7.23c.92.39,1.3,1.49.82,2.36l-5.83,10.53c-.42.75-1.33,1.07-2.12.73l-32.12-13.53c-.85-.36-1.26-1.34-.9-2.2l34.13-81.02c.36-.85,1.34-1.26,2.2-.9Z"/>
    <path class="cls-4" d="M243.96,329.49l-14.18-5.97c-.85-.36-1.84.04-2.2.9l-8.36,19.86c-.36.85.04,1.84.9,2.2l16.99,7.16c.94.39,1.31,1.52.8,2.4l-6.18,10.53c-.43.73-1.32,1.02-2.1.7l-31.78-13.39c-.85-.36-1.26-1.34-.9-2.2l34.13-81.02c.36-.85,1.34-1.26,2.2-.9l31.46,13.25c.85.36,1.26,1.34.9,2.2l-4.7,11.16c-.36.85-1.34,1.26-2.2.9l-15.19-6.4c-.85-.36-1.84.04-2.2.9l-6.45,15.32c-.36.85.04,1.84.9,2.2l14.18,5.97c.85.36,1.26,1.34.9,2.2l-4.7,11.16c-.36.85-1.34,1.26-2.2.9Z"/>
  </g>
  <g>
    <line class="cls-1" x1="91.04" y1="366.56" x2="121.76" y2="349.12"/>
    <circle class="cls-2" cx="104" cy="345.49" r="1.4"/>
    <circle class="cls-2" cx="108.79" cy="371.03" r="1.4"/>
  </g>
</svg>