<?xml version="1.0" encoding="UTF-8"?>
<svg id="Layer_1" xmlns="http://www.w3.org/2000/svg" version="1.1" viewBox="0 0 290.5 432.9">
  <!-- Generator: Adobe Illustrator 29.1.0, SVG Export Plug-In . SVG Version: 2.1.0 Build 142)  -->
  <defs>
    <style>
      .st0 {
        stroke-linecap: round;
        stroke-linejoin: round;
        stroke-width: 5px;
      }

      .st0, .st1 {
        fill: none;
        stroke: #1a1a1a;
      }

      .st1 {
        stroke-miterlimit: 10;
        stroke-width: 4px;
      }

      .st2 {
        isolation: isolate;
      }

      .st3 {
        fill: #1a1a1a;
      }
    </style>
  </defs>
  <path class="st3" d="M20.4,310.9l161.6,68c.9.4,1.4,1.5,1,2.4l-16.4,38.9c-4.4,10.5-16.5,15.4-27,11l-126.9-53.5c-10.5-4.4-15.4-16.5-11-27l16.4-38.9c.4-.9,1.5-1.4,2.4-1Z"/>
  <path class="st3" d="M261.6,193c1.1-4.3.7-9.1-1.5-13.8l-39-82.6c-4.5-9.6-15.6-14.3-25.6-10.8l-86.3,29.8c-2.7.9-5.1,2.3-7,4-2.9,2.1-5.3,5-6.8,8.6l-16.4,38.9c-.4.9,0,2,1,2.4l161.6,68.1c.9.4,2,0,2.4-1l16.4-38.9c.6-1.5,1.1-3.1,1.3-4.7h0ZM186.6,135.8c-7.2-3-10.5-11.3-7.5-18.4s11.3-10.5,18.4-7.5,10.5,11.3,7.5,18.5c-3,7.2-11.3,10.5-18.4,7.5Z"/>
  <ellipse class="st1" cx="238.3" cy="64.7" rx="76.7" ry="23.7" transform="translate(42.3 214.9) rotate(-52.7)"/>
  <g>
    <path class="st3" d="M68.9,238.8c.7.3,1.1,1.2.8,1.9l-1.6,3.8c-2,4.7-1.8,7.5,1.4,8.9s5.5-1.6,6.9-5.1c2.9-6.9,2.4-9.5-2.4-18.9-5.4-10.6-7.8-16.5-3.3-27.3s11.9-18.7,25.8-12.8c14.7,6.2,12.7,17.2,9.2,25.6l-1.2,2.8c-.3.7-1.2,1.1-1.9.8l-10.6-4.5c-.7-.3-1.1-1.2-.8-1.9l1.3-3.1c1.8-4.4,2-6.9-.7-8.1s-4.4.7-6.2,4.9c-1.8,4.4-1.9,7,2.2,14.2,7.2,13,9,19.5,4,31.4-4.9,11.5-12.8,19.3-27.3,13.2s-14.5-16.1-9.9-26.9l1.3-3.1c.3-.7,1.2-1.1,1.9-.8l11.1,4.7h0Z"/>
    <path class="st3" d="M109.8,263.5l-7.8,14.4c-.4.7-1.2.9-1.8.6l-11.6-4.9c-.8-.4-1.1-1.3-.7-2.1l39.7-66.4c.4-.6,1.1-.9,1.8-.6l18.7,7.9c.7.3,1,1,.9,1.7l-19.5,74.9c-.2.9-1.2,1.3-2,1l-11.9-5c-.7-.3-1-1-.8-1.8l4.6-15.9c.2-.7-.2-1.5-.8-1.8l-6.7-2.8c-.7-.3-1.5,0-1.8.6h0ZM122.1,252.6c.8.3,1.7,0,2-.9,2.9-9.7,7.2-23.5,9.3-30.5l-.6-.2c-2.2,4.7-10.2,19.1-15.1,28-.4.8,0,1.7.7,2.1l3.7,1.6h0Z"/>
    <path class="st3" d="M166.4,220.2l11.4,4.8c.7.3,1.1,1.2.8,1.9l-24.6,58.3c-.3.7,0,1.6.8,1.9l15,6.3c.8.3,1.1,1.3.7,2.1l-5.1,9.2c-.4.6-1.2.9-1.9.6l-28-11.8c-.7-.3-1.1-1.2-.8-1.9l29.8-70.6c.3-.7,1.2-1.1,1.9-.8h0Z"/>
    <path class="st3" d="M211.8,287.5l-12.4-5.2c-.7-.3-1.6,0-1.9.8l-7.3,17.3c-.3.7,0,1.6.8,1.9l14.8,6.2c.8.3,1.1,1.3.7,2.1l-5.4,9.2c-.4.6-1.1.9-1.8.6l-27.7-11.7c-.7-.3-1.1-1.2-.8-1.9l29.8-70.6c.3-.7,1.2-1.1,1.9-.8l27.4,11.6c.7.3,1.1,1.2.8,1.9l-4.1,9.7c-.3.7-1.2,1.1-1.9.8l-13.2-5.6c-.7-.3-1.6,0-1.9.8l-5.6,13.3c-.3.7,0,1.6.8,1.9l12.4,5.2c.7.3,1.1,1.2.8,1.9l-4.1,9.7c-.3.7-1.2,1.1-1.9.8h0Z"/>
  </g>
  <g class="st2">
    <g class="st2">
      <path class="st3" d="M50.2,285.9l-9.2-3.9-3.7,5.8c2.2-.2,4.1,0,5.7.7,1.2.5,2.3,1.2,3.2,2.2.9.9,1.5,1.9,2,3.1s.7,2.4.7,3.7c0,1.3-.3,2.6-.8,3.9-.8,1.9-1.9,3.4-3.4,4.6-1.5,1.2-3.2,1.9-5.1,2.1-2,.2-4,0-6-.9-2.3-1-4-2.2-5.1-3.6-1.1-1.5-1.7-2.9-1.8-4.2-.1-1.4,0-2.4.3-3.3.2-.5.6-.9,1.2-1.2.6-.3,1.2-.3,1.9,0,1.1.5,1.6,1.4,1.6,2.9,0,1.4.4,2.5,1,3.5.6,1,1.4,1.7,2.5,2.2,1,.4,2,.5,2.9.3,1-.2,1.8-.7,2.6-1.4.8-.7,1.4-1.7,1.9-2.8.5-1.2.7-2.4.7-3.4,0-1.1-.4-2-.9-2.7s-1.3-1.3-2.2-1.7c-1.1-.5-2-.7-2.5-.6-.6,0-1.5.3-2.6.6-1.2.3-2.1.3-2.6,0-.6-.3-1.1-.7-1.4-1.4-.3-.7-.3-1.3,0-1.9,0,0,.3-.5.8-1.2l5.5-8.5c.6-1,1.3-1.7,2-2,.7-.3,1.6-.2,2.7.3l10.2,4.3c2,.8,2.7,2,2,3.6-.3.7-.8,1.1-1.4,1.3-.7.2-1.5.1-2.4-.3Z"/>
      <path class="st3" d="M72.9,306.8c-.9,2.1-1.8,3.9-2.7,5.3-.9,1.4-1.9,2.6-3.2,3.5-1.5,1.1-3.1,1.8-4.9,2.1-1.7.2-3.4,0-5.1-.7-2-.8-3.5-2.1-4.6-3.9-1.1-1.8-1.6-3.8-1.6-6.1,0-1.2.3-2.5.6-3.9.4-1.4.9-2.8,1.5-4.3.8-1.9,1.7-3.6,2.5-5.1.9-1.5,1.7-2.7,2.7-3.6,1.5-1.5,3.2-2.5,5.1-2.8,1.9-.4,3.8-.1,5.8.7,1.3.6,2.4,1.3,3.3,2.2.9.9,1.6,1.9,2,3.1s.7,2.5.8,3.9c0,2.5-.7,5.7-2.3,9.6ZM67.8,304.2c1-2.3,1.7-4.3,2-5.9.3-1.6.3-2.9,0-4-.3-1-1.1-1.8-2.3-2.3-1.7-.7-3.2-.4-4.6,1.1-1.4,1.4-2.8,3.9-4.3,7.5-1,2.4-1.7,4.5-2.1,6.1-.4,1.7-.4,3,0,4.1.3,1.1,1.1,1.8,2.2,2.3,1.2.5,2.3.5,3.3,0,1-.5,2-1.5,2.9-2.9.9-1.4,1.9-3.4,2.9-5.8Z"/>
    </g>
    <g class="st2">
      <path class="st3" d="M136,315.9c2.9,1.2,5.2,2.9,6.8,5s2.5,4.4,2.6,7.1-.4,5.4-1.6,8.4c-.9,2.2-2.1,4-3.4,5.6-1.3,1.5-2.9,2.7-4.6,3.5-1.7.8-3.6,1.2-5.6,1.2-2,0-4.1-.5-6.4-1.4-2.2-.9-4-2.1-5.5-3.6-1.4-1.4-2.5-3.1-3.1-4.9-.6-1.8-.8-3.7-.7-5.8.2-2.1.7-4.2,1.6-6.3.9-2.2,2.1-4,3.4-5.6,1.4-1.5,2.9-2.7,4.7-3.5,1.7-.8,3.6-1.1,5.5-1.1,2,0,4,.5,6.2,1.4ZM138,333.8c.9-2.1,1.3-4,1.3-5.8,0-1.8-.5-3.3-1.4-4.6s-2.2-2.3-3.8-3c-1.1-.5-2.3-.7-3.4-.7s-2.2.3-3.3.8c-1,.5-2,1.3-3,2.5-.9,1.1-1.8,2.5-2.4,4-.7,1.6-1.1,3.1-1.2,4.6-.1,1.5,0,2.8.4,3.9.4,1.2,1,2.2,1.7,3,.8.8,1.7,1.5,2.9,2,1.5.6,3,.8,4.5.6,1.5-.2,3-.9,4.4-2.2,1.4-1.2,2.5-3,3.5-5.2Z"/>
    </g>
    <g class="st2">
      <path class="st3" d="M167.7,335l-11.3-4.7-3,7.2,9.4,4c.9.4,1.4.8,1.7,1.4.3.6.3,1.2,0,1.8-.3.7-.7,1.1-1.3,1.3-.6.2-1.3.1-2.2-.2l-9.4-4-3.9,9.3c-.5,1.2-1.1,1.9-1.9,2.3-.8.3-1.6.3-2.4,0-.8-.4-1.4-.9-1.7-1.7-.3-.8-.2-1.8.3-3l9.2-21.7c.3-.8.8-1.4,1.2-1.9.5-.4,1-.6,1.6-.7.6,0,1.3.1,2.1.5l13.5,5.7c.9.4,1.5.9,1.8,1.5.3.6.3,1.2,0,1.9-.3.7-.7,1.1-1.3,1.3-.6.2-1.4.1-2.3-.2Z"/>
    </g>
    <g class="st2">
      <path class="st3" d="M189.7,344.3l-11.3-4.7-3,7.2,9.4,4c.9.4,1.4.8,1.7,1.4.3.6.3,1.2,0,1.8-.3.7-.7,1.1-1.3,1.3-.6.2-1.3.1-2.2-.2l-9.4-4-3.9,9.3c-.5,1.2-1.1,1.9-1.9,2.3-.8.3-1.6.3-2.4,0-.8-.4-1.4-.9-1.7-1.7-.3-.8-.2-1.8.3-3l9.2-21.7c.3-.8.8-1.4,1.2-1.9.5-.4,1-.6,1.6-.7.6,0,1.3.1,2.1.5l13.5,5.7c.9.4,1.5.9,1.8,1.5.3.6.3,1.2,0,1.9-.3.7-.7,1.1-1.3,1.3-.6.2-1.4.1-2.3-.2Z"/>
    </g>
  </g>
  <g>
    <line class="st0" x1="73.7" y1="321.3" x2="101.6" y2="305.5"/>
    <circle class="st0" cx="85.4" cy="302.2" r="1.3"/>
    <circle class="st0" cx="89.8" cy="325.4" r="1.3"/>
  </g>
</svg>