<?xml version="1.0" encoding="UTF-8"?>
<svg id="Layer_1" data-name="Layer 1" xmlns="http://www.w3.org/2000/svg" viewBox="0 0 46.53 42.88">
  <path d="M39.18,4c1.85,0,3.35,1.5,3.35,3.35v17.59c0,1.57-1.07,2.91-2.59,3.26-2.02.46-3.35,2.39-3.07,4.44l.5,3.66-9.25-7.17c-.7-.54-1.56-.84-2.45-.84H7.35c-1.85,0-3.35-1.5-3.35-3.35V7.35c0-1.85,1.5-3.35,3.35-3.35h31.83M39.18,0H7.35C3.29,0,0,3.29,0,7.35v17.59c0,4.06,3.29,7.35,7.35,7.35h18.32l13.12,10.16c.38.29.8.42,1.21.42,1.13,0,2.17-.98,1.99-2.27l-1.16-8.5c3.26-.75,5.7-3.67,5.7-7.16V7.35c0-4.06-3.29-7.35-7.35-7.35h0Z"/>
</svg>