<?xml version="1.0" encoding="UTF-8"?>
<svg id="Layer_1" data-name="Layer 1" xmlns="http://www.w3.org/2000/svg" viewBox="0 0 357.35 227.43">
  <defs>
    <style>
      .cls-1 {
        stroke-width: 5px;
      }

      .cls-1, .cls-2, .cls-3 {
        stroke-linecap: round;
        stroke-linejoin: round;
      }

      .cls-1, .cls-2, .cls-3, .cls-4, .cls-5 {
        fill: none;
      }

      .cls-1, .cls-2, .cls-3, .cls-5, .cls-6 {
        stroke: #1a1a1a;
      }

      .cls-2, .cls-4, .cls-5, .cls-6 {
        stroke-width: 4px;
      }

      .cls-3 {
        stroke-width: 3px;
      }

      .cls-7 {
        font-family: OhnoSoftieVar-Medium, 'Ohno Softie Variable';
        font-size: 37.4px;
        font-variation-settings: 'wght' 500;
        font-weight: 500;
      }

      .cls-7, .cls-8 {
        isolation: isolate;
      }

      .cls-7, .cls-9 {
        fill: #fff;
      }

      .cls-4 {
        stroke: #fff;
      }

      .cls-4, .cls-5, .cls-6 {
        stroke-miterlimit: 10;
      }

      .cls-6 {
        fill: #1a1a1a;
      }
    </style>
  </defs>
  <rect class="cls-5" x="2" y="2" width="353.35" height="223.43" rx="2.74" ry="2.74"/>
  <rect class="cls-6" x="14.91" y="52.09" width="327.52" height="160.83" rx="2.74" ry="2.74"/>
  <path class="cls-5" d="M34.22,14.69l-13.38,23.17c-1.05,1.81.26,4.08,2.35,4.08h26.75c2.09,0,3.4-2.27,2.35-4.08l-13.38-23.17c-1.05-1.81-3.66-1.81-4.71,0,0,0,.02,0,.02,0Z"/>
  <g>
    <line class="cls-1" x1="315.7" y1="17.26" x2="337.41" y2="38.98"/>
    <line class="cls-1" x1="337.41" y1="17.26" x2="315.7" y2="38.98"/>
  </g>
  <line class="cls-3" x1="36.57" y1="22.49" x2="36.57" y2="31.48"/>
  <line class="cls-2" x1="36.57" y1="36.08" x2="36.57" y2="36.16"/>
  <rect class="cls-4" x="114.3" y="151.48" width="128.74" height="45" rx="2.74" ry="2.74"/>
  <g class="cls-8">
    <g class="cls-8">
      <g class="cls-8">
        <path class="cls-9" d="M28.06,111.23h-.45v16h-3.42v-20.69h5.03l4.56,16h.45v-16h3.42v20.69h-5.03l-4.56-16Z"/>
        <path class="cls-9" d="M40.61,117.03c0-7.2,2.61-10.78,7.78-10.78s7.78,3.58,7.78,10.78-2.61,10.49-7.78,10.49-7.78-3.47-7.78-10.49ZM52.5,117.03c0-5.01-1.37-7.5-4.11-7.5s-4.11,2.49-4.11,7.5,1.37,7.21,4.11,7.21,4.11-2.39,4.11-7.21Z"/>
        <path class="cls-9" d="M76.91,124.04h4.66v-14.32h-4.66v-3.18h12.88v3.18h-4.69v14.32h4.69v3.19h-12.88v-3.19Z"/>
        <path class="cls-9" d="M97.97,111.23h-.45v16h-3.42v-20.69h5.03l4.56,16h.45v-16h3.42v20.69h-5.03l-4.56-16Z"/>
        <path class="cls-9" d="M116.54,109.77h-5.96v-3.24h15.45v3.24h-5.96v17.46h-3.53v-17.46Z"/>
        <path class="cls-9" d="M129.23,106.54h13.99v3.24h-10.48v5.48h7.85v3.23h-7.85v5.51h10.48v3.24h-13.99v-20.69Z"/>
        <path class="cls-9" d="M146.41,106.54h7.26c4.39,0,6.88,2.27,6.88,6.27,0,2.9-1.15,4.97-3.26,5.99l4.02,8.44h-4.15l-3.32-7.7h-3.91v7.7h-3.51v-20.69ZM153.67,116.3c2,0,3.16-1.18,3.16-3.21,0-2.13-1.17-3.32-3.16-3.32h-3.75v6.53h3.75Z"/>
        <path class="cls-9" d="M167.89,111.23h-.45v16h-3.42v-20.69h5.03l4.56,16h.45v-16h3.42v20.69h-5.03l-4.56-16Z"/>
        <path class="cls-9" d="M181.66,106.54h13.99v3.24h-10.48v5.48h7.85v3.23h-7.85v5.51h10.48v3.24h-13.99v-20.69Z"/>
        <path class="cls-9" d="M203.94,109.77h-5.96v-3.24h15.45v3.24h-5.96v17.46h-3.53v-17.46Z"/>
        <path class="cls-9" d="M238.4,106.54h4.52l5.97,20.69h-3.72l-1.15-4.37h-6.73l-1.15,4.37h-3.72l5.97-20.69ZM243.18,119.62l-2.39-9.05h-.26l-2.39,9.05h5.04Z"/>
        <path class="cls-9" d="M250.5,116.86c0-6.73,3.42-10.61,9.44-10.61,2.78,0,5,.93,6.05,2.58l-2.16,2.55c-.87-1.18-2.29-1.85-3.86-1.85-3.51,0-5.8,2.59-5.8,7.18,0,5.03,2.23,7.53,6.62,7.53,1.43,0,2.8-.29,4.17-.87l.67,3.16c-1.72.67-3.5.99-5.33.99-6.51,0-9.79-3.55-9.79-10.67Z"/>
        <path class="cls-9" d="M267.98,116.86c0-6.73,3.42-10.61,9.44-10.61,2.78,0,5,.93,6.05,2.58l-2.16,2.55c-.87-1.18-2.29-1.85-3.86-1.85-3.51,0-5.8,2.59-5.8,7.18,0,5.03,2.23,7.53,6.62,7.53,1.43,0,2.8-.29,4.17-.87l.67,3.16c-1.72.67-3.5.99-5.33.99-6.51,0-9.79-3.55-9.79-10.67Z"/>
        <path class="cls-9" d="M286.53,106.54h13.99v3.24h-10.48v5.48h7.85v3.23h-7.85v5.51h10.48v3.24h-13.99v-20.69Z"/>
        <path class="cls-9" d="M303.56,126.38l.47-3.54c2.13.92,4.23,1.4,6.06,1.4,2.33,0,3.54-.83,3.54-2.43,0-1.03-.64-1.85-1.78-2.38l-3.22-1.53c-2.89-1.37-4.52-3.37-4.52-5.98,0-3.61,2.4-5.68,6.62-5.68,2.64,0,4.85.86,6.7,2.61l-2.41,2.65c-1.49-1.33-2.88-2-4.28-2-1.84,0-2.88.84-2.88,2.42,0,1.09.71,1.89,2.01,2.55l2.9,1.44c2.97,1.49,4.6,3.38,4.6,5.9,0,3.7-2.61,5.7-7.52,5.7-2.35,0-4.55-.39-6.29-1.14Z"/>
        <path class="cls-9" d="M321.04,126.38l.47-3.54c2.13.92,4.23,1.4,6.06,1.4,2.33,0,3.54-.83,3.54-2.43,0-1.03-.64-1.85-1.78-2.38l-3.22-1.53c-2.89-1.37-4.52-3.37-4.52-5.98,0-3.61,2.4-5.68,6.62-5.68,2.64,0,4.85.86,6.7,2.61l-2.41,2.65c-1.49-1.33-2.88-2-4.28-2-1.84,0-2.88.84-2.88,2.42,0,1.09.71,1.89,2.01,2.55l2.9,1.44c2.97,1.49,4.6,3.38,4.6,5.9,0,3.7-2.61,5.7-7.52,5.7-2.35,0-4.55-.39-6.29-1.14Z"/>
      </g>
    </g>
  </g>
  <g class="cls-8">
    <g class="cls-8">
      <text class="cls-7" transform="translate(149.91 187.64)"><tspan x="0" y="0">OK</tspan></text>
    </g>
  </g>
</svg>