<?xml version="1.0" encoding="UTF-8"?>
<svg id="Layer_1" xmlns="http://www.w3.org/2000/svg" version="1.1" viewBox="0 0 357.4 227.4">
  <!-- Generator: Adobe Illustrator 29.1.0, SVG Export Plug-In . SVG Version: 2.1.0 Build 142)  -->
  <defs>
    <style>
      .st0 {
        stroke-width: 5px;
      }

      .st0, .st1, .st2 {
        stroke-linecap: round;
        stroke-linejoin: round;
      }

      .st0, .st1, .st2, .st3, .st4 {
        fill: none;
      }

      .st0, .st1, .st2, .st4, .st5 {
        stroke: #1a1a1a;
      }

      .st1, .st3, .st4, .st5 {
        stroke-width: 4px;
      }

      .st2 {
        stroke-width: 3px;
      }

      .st3 {
        stroke: #fff;
      }

      .st3, .st4, .st5 {
        stroke-miterlimit: 10;
      }

      .st6 {
        isolation: isolate;
      }

      .st7 {
        fill: #fff;
      }

      .st5 {
        fill: #1a1a1a;
      }
    </style>
  </defs>
  <rect class="st4" x="2" y="2" width="353.4" height="223.4" rx="2.7" ry="2.7"/>
  <rect class="st5" x="14.9" y="52.1" width="327.5" height="160.8" rx="2.7" ry="2.7"/>
  <path class="st4" d="M34.2,14.7l-13.4,23.2c-1,1.8.3,4.1,2.4,4.1h26.8c2.1,0,3.4-2.3,2.3-4.1l-13.4-23.2c-1-1.8-3.7-1.8-4.7,0,0,0,0,0,0,0Z"/>
  <g>
    <line class="st0" x1="315.7" y1="17.3" x2="337.4" y2="39"/>
    <line class="st0" x1="337.4" y1="17.3" x2="315.7" y2="39"/>
  </g>
  <line class="st2" x1="36.6" y1="22.5" x2="36.6" y2="31.5"/>
  <line class="st1" x1="36.6" y1="36.1" x2="36.6" y2="36.2"/>
  <rect class="st3" x="114.3" y="151.5" width="128.7" height="45" rx="2.7" ry="2.7"/>
  <g class="st6">
    <g class="st6">
      <g class="st6">
        <path class="st7" d="M28.1,111.2h-.5v16h-3.4v-20.7h5l4.6,16h.5v-16h3.4v20.7h-5s-4.6-16-4.6-16Z"/>
        <path class="st7" d="M40.6,117c0-7.2,2.6-10.8,7.8-10.8s7.8,3.6,7.8,10.8-2.6,10.5-7.8,10.5-7.8-3.5-7.8-10.5ZM52.5,117c0-5-1.4-7.5-4.1-7.5s-4.1,2.5-4.1,7.5,1.4,7.2,4.1,7.2,4.1-2.4,4.1-7.2Z"/>
        <path class="st7" d="M76.9,124h4.7v-14.3h-4.7v-3.2h12.9v3.2h-4.7v14.3h4.7v3.2h-12.9v-3.2Z"/>
        <path class="st7" d="M98,111.2h-.4v16h-3.4v-20.7h5l4.6,16h.4v-16h3.4v20.7h-5l-4.6-16Z"/>
        <path class="st7" d="M116.5,109.8h-6v-3.2h15.4v3.2h-6v17.5h-3.5v-17.5Z"/>
        <path class="st7" d="M129.2,106.5h14v3.2h-10.5v5.5h7.9v3.2h-7.9v5.5h10.5v3.2h-14v-20.7h0Z"/>
        <path class="st7" d="M146.4,106.5h7.3c4.4,0,6.9,2.3,6.9,6.3s-1.1,5-3.3,6l4,8.4h-4.1l-3.3-7.7h-3.9v7.7h-3.5v-20.7h0ZM153.7,116.3c2,0,3.2-1.2,3.2-3.2s-1.2-3.3-3.2-3.3h-3.8v6.5h3.8Z"/>
        <path class="st7" d="M167.9,111.2h-.4v16h-3.4v-20.7h5l4.6,16h.4v-16h3.4v20.7h-5l-4.6-16Z"/>
        <path class="st7" d="M181.7,106.5h14v3.2h-10.5v5.5h7.9v3.2h-7.9v5.5h10.5v3.2h-14v-20.7h0Z"/>
        <path class="st7" d="M203.9,109.8h-6v-3.2h15.4v3.2h-6v17.5h-3.5v-17.5h0Z"/>
        <path class="st7" d="M238.4,106.5h4.5l6,20.7h-3.7l-1.1-4.4h-6.7l-1.1,4.4h-3.7l6-20.7h0ZM243.2,119.6l-2.4-9.1h-.3l-2.4,9.1h5Z"/>
        <path class="st7" d="M250.5,116.9c0-6.7,3.4-10.6,9.4-10.6s5,.9,6,2.6l-2.2,2.6c-.9-1.2-2.3-1.8-3.9-1.8-3.5,0-5.8,2.6-5.8,7.2s2.2,7.5,6.6,7.5,2.8-.3,4.2-.9l.7,3.2c-1.7.7-3.5,1-5.3,1-6.5,0-9.8-3.6-9.8-10.7h0Z"/>
        <path class="st7" d="M268,116.9c0-6.7,3.4-10.6,9.4-10.6s5,.9,6,2.6l-2.2,2.6c-.9-1.2-2.3-1.8-3.9-1.8-3.5,0-5.8,2.6-5.8,7.2s2.2,7.5,6.6,7.5,2.8-.3,4.2-.9l.7,3.2c-1.7.7-3.5,1-5.3,1-6.5,0-9.8-3.6-9.8-10.7h0Z"/>
        <path class="st7" d="M286.5,106.5h14v3.2h-10.5v5.5h7.9v3.2h-7.9v5.5h10.5v3.2h-14v-20.7h0Z"/>
        <path class="st7" d="M303.6,126.4l.5-3.5c2.1.9,4.2,1.4,6.1,1.4s3.5-.8,3.5-2.4-.6-1.8-1.8-2.4l-3.2-1.5c-2.9-1.4-4.5-3.4-4.5-6s2.4-5.7,6.6-5.7,4.9.9,6.7,2.6l-2.4,2.7c-1.5-1.3-2.9-2-4.3-2s-2.9.8-2.9,2.4.7,1.9,2,2.6l2.9,1.4c3,1.5,4.6,3.4,4.6,5.9,0,3.7-2.6,5.7-7.5,5.7s-4.5-.4-6.3-1.1h0Z"/>
        <path class="st7" d="M321,126.4l.5-3.5c2.1.9,4.2,1.4,6.1,1.4s3.5-.8,3.5-2.4-.6-1.8-1.8-2.4l-3.2-1.5c-2.9-1.4-4.5-3.4-4.5-6s2.4-5.7,6.6-5.7,4.9.9,6.7,2.6l-2.4,2.7c-1.5-1.3-2.9-2-4.3-2s-2.9.8-2.9,2.4.7,1.9,2,2.6l2.9,1.4c3,1.5,4.6,3.4,4.6,5.9,0,3.7-2.6,5.7-7.5,5.7s-4.5-.4-6.3-1.1h0Z"/>
      </g>
    </g>
  </g>
  <g class="st6">
    <g class="st6">
      <g class="st6">
        <g class="st6">
          <path class="st7" d="M162.2,188c-2.1,0-4.1-.5-5.8-1.5-1.7-1-3.1-2.5-4.2-4.3-1-1.9-1.5-4.1-1.5-6.7s.5-4.8,1.5-6.6c1-1.8,2.4-3.2,4.1-4.1,1.7-.9,3.7-1.4,5.8-1.4s4.1.5,5.9,1.4c1.8.9,3.2,2.3,4.2,4.1,1,1.8,1.6,4,1.6,6.6s-.5,4.8-1.6,6.7c-1,1.9-2.4,3.3-4.2,4.4s-3.7,1.5-5.9,1.5ZM162.2,183.3c1.3,0,2.4-.3,3.3-1,.9-.6,1.7-1.6,2.2-2.7.5-1.2.8-2.6.8-4.1s-.3-2.9-.8-4.1-1.3-2-2.3-2.5c-1-.6-2.1-.9-3.3-.9s-2.3.3-3.2.9-1.7,1.4-2.2,2.5-.8,2.5-.8,4.1.3,2.9.8,4.1c.5,1.2,1.2,2.1,2.2,2.7s2,1,3.3,1Z"/>
          <path class="st7" d="M179,187.9c-.6,0-1.2-.2-1.5-.5-.4-.4-.6-.9-.7-1.6-.2-1.2-.3-2.6-.3-4.3,0-1.7,0-3.6,0-5.9s0-4.1,0-5.8c0-1.7.1-3.2.3-4.4,0-.6.3-1.1.7-1.5.4-.3.9-.5,1.6-.5s1.1.2,1.5.5c.4.3.6.8.7,1.5.1.9.2,1.9.2,3.1,0,1.2,0,2.4,0,3.6s0,.5.1.7c0,.2.2.3.4.2.2,0,.4-.1.6-.3.2-.2.4-.4.7-.8.5-.6,1-1.3,1.6-2s1.1-1.4,1.6-2.2,1-1.4,1.5-2c.5-.7,1-1.3,1.4-1.7.4-.4,1-.7,1.7-.7s1.3.2,1.6.6c.3.4.5.8.5,1.3s-.3,1.2-.8,2.1c-.6.8-1.3,1.8-2.3,2.9-.9,1.1-2,2.4-3.2,3.8-.1.2-.3.3-.4.5,0,.1-.1.3-.1.4s0,.4.1.5c0,.1.2.3.3.4,1.6,1.9,2.8,3.5,3.8,4.7,1,1.2,1.7,2.3,2.2,3s.7,1.5.7,2.1,0,.7-.2,1c-.2.3-.4.6-.7.8-.3.2-.7.3-1.1.3-.8,0-1.4-.2-1.8-.6-.4-.4-.8-.8-1.1-1.2-.7-1-1.4-1.9-2-2.7-.6-.8-1.2-1.5-1.7-2.3-.5-.8-1.2-1.6-1.9-2.5-.2-.3-.4-.5-.5-.7-.1-.2-.3-.2-.5-.2s-.3,0-.4.2c0,.2,0,.4,0,.7,0,.6,0,1.4,0,2.2,0,.9,0,1.7,0,2.6,0,.8,0,1.6-.2,2.1,0,.7-.3,1.3-.7,1.6-.4.3-.9.5-1.5.5Z"/>
        </g>
      </g>
    </g>
  </g>
</svg>