<?xml version="1.0" encoding="UTF-8"?>
<svg id="Layer_1" data-name="Layer 1" xmlns="http://www.w3.org/2000/svg" viewBox="0 0 185.96 139.2">
  <defs>
    <style>
      .cls-1 {
        fill: #1a1a1a;
      }
    </style>
  </defs>
  <g>
    <path class="cls-1" d="M172.64,53.98l12.44-12.51c1.22-1.23,1.17-3.2-.07-4.4-51.46-49.43-132.57-49.43-184.04,0-1.25,1.2-1.29,3.17-.07,4.4l12.44,12.52c1.16,1.17,3.05,1.22,4.25.1,42.76-40.15,108.04-40.16,150.81,0,1.2,1.13,3.09,1.07,4.25-.1Z"/>
    <path class="cls-1" d="M153.5,68.69c-34.06-31.94-86.98-31.94-121.04,0-1.27,1.19-1.32,3.19-.09,4.42l12.43,12.51c1.16,1.16,3.03,1.21,4.24.1,24.84-22.88,63.05-22.88,87.89,0,1.21,1.11,3.08,1.06,4.24-.1l12.43-12.51c1.23-1.23,1.18-3.23-.09-4.42Z"/>
    <path class="cls-1" d="M63.95,100.27c16.64-14.49,41.44-14.49,58.07,0,1.33,1.16,1.37,3.21.13,4.46l-26.99,27.16c-1.2,1.21-3.15,1.21-4.35,0l-26.99-27.16c-1.24-1.25-1.2-3.3.13-4.46Z"/>
  </g>
  <path class="cls-1" d="M158.12,137.55c-1.25-1.1-1.87-2.81-1.87-5.13,0-2.14.64-3.82,1.91-5.04,1.27-1.22,3.21-1.82,5.82-1.82,2.08,0,3.76.55,5.04,1.65,1.27,1.1,1.91,2.81,1.91,5.13s-.61,3.9-1.82,5.08c-1.22,1.19-3.18,1.78-5.91,1.78-2.14,0-3.84-.55-5.08-1.65ZM158.67,81.44h9.93c1.17,0,2.1.98,2.04,2.15l-1.86,34.57c-.06,1.08-.95,1.93-2.04,1.93h-6.2c-1.09,0-1.98-.85-2.04-1.93l-1.86-34.57c-.06-1.17.87-2.15,2.04-2.15Z"/>
</svg>