<?xml version="1.0" encoding="UTF-8"?>
<svg id="Layer_1" data-name="Layer 1" xmlns="http://www.w3.org/2000/svg" viewBox="0 0 188.74 321.52">
  <defs>
    <style>
      .cls-1 {
        fill: #1a1a1a;
      }
    </style>
  </defs>
  <rect class="cls-1" x="102.95" y="100.09" width="17.16" height="17.16"/>
  <rect class="cls-1" x="120.11" y="117.25" width="17.16" height="17.16"/>
  <rect class="cls-1" x="137.26" y="134.41" width="17.16" height="17.16"/>
  <polygon class="cls-1" points="102.95 82.93 102.95 100.09 85.79 100.09 85.79 131.48 68.63 131.48 68.63 101.54 51.48 101.54 51.48 147.92 34.32 147.92 34.32 165.46 17.16 165.46 17.16 220.2 34.32 220.2 34.32 237.35 17.16 237.35 17.16 254.51 0 254.51 0 0 17.16 0 17.16 14.3 34.32 14.3 34.32 31.46 51.48 31.46 51.48 48.61 68.63 48.61 68.63 65.77 85.79 65.77 85.79 82.93 102.95 82.93"/>
  <rect class="cls-1" x="68.63" y="203.04" width="17.16" height="34.32"/>
  <rect class="cls-1" x="51.47" y="185.88" width="17.16" height="17.16"/>
  <rect class="cls-1" x="34.32" y="203.04" width="17.16" height="17.16"/>
  <rect class="cls-1" x="120.11" y="203.04" width="17.16" height="34.32"/>
  <rect class="cls-1" x="137.26" y="237.35" width="17.16" height="31.46"/>
  <rect class="cls-1" x="85.79" y="237.35" width="17.16" height="31.46"/>
  <polygon class="cls-1" points="120.08 268.76 102.92 268.76 102.92 286.62 102.92 304.48 120.08 304.48 120.08 286.62 120.08 268.76"/>
  <polygon class="cls-1" points="171.51 268.76 154.35 268.76 154.35 286.62 154.35 304.48 171.51 304.48 171.51 286.62 171.51 268.76"/>
  <polygon class="cls-1" points="154.43 304.29 119.82 304.29 119.82 312.9 119.82 321.52 154.43 321.52 154.43 312.9 154.43 304.29"/>
  <polygon class="cls-1" points="188.74 185.88 188.74 168.72 171.58 168.72 171.58 151.56 154.42 151.56 154.42 168.72 102.95 168.72 102.95 203.04 120.11 203.04 120.11 185.88 188.74 185.88"/>
</svg>