<?xml version="1.0" encoding="UTF-8"?>
<svg id="Layer_1" data-name="Layer 1" xmlns="http://www.w3.org/2000/svg" viewBox="0 0 540.87 316.15">
  <defs>
    <style>
      .cls-1 {
        stroke-linecap: round;
        stroke-linejoin: round;
        stroke-width: 5px;
      }

      .cls-1, .cls-2 {
        fill: none;
      }

      .cls-1, .cls-2, .cls-3 {
        stroke: #1a1a1a;
      }

      .cls-2, .cls-3 {
        stroke-miterlimit: 10;
        stroke-width: 4px;
      }

      .cls-4, .cls-3 {
        fill: #1a1a1a;
      }
    </style>
  </defs>
  <path class="cls-2" d="M473.51,4.35l2.76,19.04c.2,1.41-.8,2.65-2.19,2.85h-.03c-8.66,1.26-14.38,10.02-11.55,18.75,2.19,6.77,9.25,10.86,16.24,9.57.04,0,.07-.01.11-.03,1.03-.2,2.02.55,2.17,1.59l2.4,16.58c.2,1.41-.8,2.65-2.19,2.85h-.03c-8.67,1.26-14.4,10.03-11.55,18.77,2.2,6.74,9.25,10.83,16.23,9.54.04,0,.07-.01.11-.03,1.04-.2,2.03.54,2.18,1.59l2.49,17.19c.15,1.06-.59,2.06-1.65,2.17-.04,0-.08,0-.12,0-7.05.75-12.64,6.66-12.83,13.75-.24,9.19,7.73,15.97,16.4,14.71h.03c1.4-.21,2.71.7,2.91,2.11l2.4,16.58c.15,1.05-.58,2.04-1.63,2.15-.04,0-.07,0-.11,0-7.07.74-12.67,6.68-12.86,13.79-.24,9.17,7.74,15.95,16.4,14.69h.03c1.4-.21,2.71.7,2.91,2.11l2.76,19.04c.22,1.49-.81,2.89-2.32,3.1L36.93,294.39c-1.49.22-2.89-.82-3.1-2.32l-2.78-19.16c-.2-1.37.78-2.65,2.16-2.76,3.17-.25,6.45-1.57,9.35-4.51,1.86-1.89,3.15-4.3,3.61-6.9,1.85-10.35-6.75-18.46-16.15-17.1h-.04c-1.87.28-3.6-1.02-3.88-2.89l-2.06-14.24c-.26-1.82,1-3.5,2.81-3.76l.14-.02c8.24-1.19,13.83-9.18,11.91-17.48-1.72-7.42-9.22-12.23-16.69-10.8l-.13.02c-1.4.28-2.77-.61-2.97-2.02l-2.39-16.49c-.18-1.23.73-2.34,1.97-2.42,2.19-.14,4.45-.78,6.61-2.11,4.46-2.76,7.13-7.82,6.81-13.05-.52-8.49-8.14-14.55-16.38-13.36h-.04c-1.87.28-3.6-1.02-3.88-2.89l-2.27-15.69c-.16-1.12.67-2.14,1.8-2.2h.14c6.75-.39,12.45-5.43,13.36-12.14,1.35-10.02-7.07-17.73-16.26-16.4l-.14.02c-1.8.26-3.5-1-3.76-2.81l-2.64-18.24c-.22-1.49.82-2.89,2.32-3.1L470.41,2.03c1.49-.22,2.89.82,3.1,2.32Z"/>
  <path class="cls-3" d="M495.68,62.67c2.21,6.81,9.33,10.95,16.37,9.64.04,0,.08-.01.11-.03,1.05-.2,2.04.55,2.19,1.6l2.42,16.73c.2,1.41-.8,2.67-2.22,2.87h-.02c-8.75,1.27-14.52,10.12-11.64,18.94,2.22,6.79,9.32,10.91,16.36,9.61.04,0,.08-.01.11-.03,1.05-.2,2.05.55,2.2,1.61l2.51,17.33c.15,1.07-.59,2.08-1.66,2.18-.04,0-.08.01-.11,0-7.11.76-12.75,6.73-12.94,13.87-.24,9.27,7.8,16.1,16.54,14.83h.02c1.42-.21,2.74.71,2.95,2.13l2.42,16.72c.15,1.06-.58,2.05-1.65,2.16-.03,0-.07.01-.11,0-7.13.75-12.77,6.74-12.96,13.9-.25,9.24,7.8,16.08,16.54,14.81h.02c1.42-.21,2.74.71,2.95,2.13l2.78,19.2c.22,1.5-.82,2.91-2.34,3.13l-469.9,68.11c-1.5.22-2.91-.83-3.13-2.34l-2.8-19.32c-.08-.55.03-1.1.29-1.56l442.02-64.07c1.5-.22,2.54-1.61,2.32-3.1l-2.76-19.04c-.2-1.41-1.52-2.32-2.91-2.11h-.03c-8.66,1.26-16.63-5.52-16.4-14.69.18-7.11,5.79-13.05,12.86-13.79.04,0,.07-.01.11,0,1.05-.1,1.78-1.1,1.63-2.15l-2.4-16.58c-.2-1.41-1.52-2.32-2.91-2.11h-.03c-8.67,1.26-16.64-5.52-16.4-14.71.19-7.09,5.78-13,12.83-13.75.04,0,.08-.01.12,0,1.05-.11,1.8-1.11,1.65-2.17l-2.49-17.19c-.15-1.05-1.14-1.8-2.18-1.59-.04.02-.07.02-.11.03-6.98,1.28-14.03-2.8-16.23-9.54-2.85-8.74,2.88-17.51,11.55-18.77h.03c1.4-.21,2.4-1.45,2.19-2.86l-2.4-16.58c-.15-1.05-1.14-1.8-2.17-1.59-.04.02-.07.02-.11.03-6.99,1.3-14.05-2.8-16.24-9.57-2.83-8.72,2.89-17.49,11.55-18.74h.03c1.4-.21,2.4-1.45,2.19-2.86v-.07s27.38-3.97,27.38-3.97c1.5-.22,2.91.83,3.13,2.35l2.78,19.2c.2,1.41-.8,2.67-2.22,2.87h-.02c-8.74,1.27-14.51,10.11-11.65,18.91Z"/>
  <g>
    <path class="cls-4" d="M165.9,95.81l25.98-3.77.87,6.01-19.46,2.82,1.47,10.17,14.59-2.11.87,6.01-14.59,2.11,1.48,10.23,19.46-2.82.87,6.01-25.98,3.76-5.57-38.43Z"/>
    <path class="cls-4" d="M206.51,98.82l-.84.12,4.31,29.71-6.36.92-5.57-38.43,9.34-1.35,12.78,28.49.84-.12-4.31-29.71,6.36-.92,5.57,38.43-9.34,1.35-12.78-28.49Z"/>
    <path class="cls-4" d="M240.62,91.11l-11.07,1.6-.87-6.01,28.68-4.16.87,6.01-11.07,1.6,4.7,32.42-6.55.95-4.7-32.42Z"/>
    <path class="cls-4" d="M263.32,81.69l25.98-3.77.87,6.01-19.46,2.82,1.48,10.17,14.59-2.11.87,6.01-14.59,2.11,1.48,10.23,19.46-2.82.87,6.01-25.98,3.77-5.57-38.43Z"/>
    <path class="cls-4" d="M295.25,77.06l13.48-1.95c8.15-1.18,13.38,2.37,14.46,9.78.78,5.39-.8,9.54-4.45,12l9.74,14.59-7.71,1.12-8.24-13.39c-.08.01-.19.03-.3.04l-6.95,1.01,2.07,14.29-6.52.95-5.57-38.43ZM311.36,93.24c3.71-.54,5.55-3.04,5.01-6.81-.57-3.95-3.06-5.86-6.77-5.32l-6.95,1.01,1.76,12.12,6.96-1.01Z"/>
    <path class="cls-4" d="M182.13,145.06l-11.07,1.6-.87-6.01,28.68-4.16.87,6.01-11.07,1.6,4.7,32.42-6.55.95-4.7-32.42Z"/>
    <path class="cls-4" d="M212.81,134.48l8.39-1.22,16.67,36.82-6.9,1-3.31-7.81-12.5,1.81-.96,8.43-6.9,1,5.53-40.03ZM225.21,157.5l-6.87-16.16-.49.07-2,17.45,9.36-1.36Z"/>
    <path class="cls-4" d="M242.23,163.4l8.66-1.26-3.86-26.6-8.66,1.26-.85-5.9,23.92-3.47.85,5.9-8.71,1.26,3.86,26.6,8.71-1.26.86,5.93-23.92,3.47-.86-5.93Z"/>
    <path class="cls-4" d="M277.91,133.94l-.84.12,4.31,29.71-6.36.92-5.57-38.43,9.34-1.35,12.78,28.48.84-.12-4.31-29.71,6.36-.92,5.57,38.43-9.34,1.35-12.78-28.49Z"/>
    <path class="cls-4" d="M302.98,137.96l27.6-4,.88,6.06-27.6,4-.88-6.06Z"/>
    <path class="cls-4" d="M179.13,184.71l9.47-1.37,5.81,16.43.43-.06.91-17.4,9.47-1.37,5.57,38.43-6.14.89-4.58-31.61-.79.11-1.12,17.79-4.98.72-6.13-16.74-.78.11,4.58,31.61-6.14.89-5.57-38.43Z"/>
    <path class="cls-4" d="M212.47,179.88l25.98-3.77.87,6.01-19.46,2.82,1.47,10.18,14.59-2.11.87,6.01-14.59,2.11,1.48,10.23,19.46-2.82.87,6.01-25.98,3.76-5.57-38.43Z"/>
    <path class="cls-4" d="M253.08,182.89l-.84.12,4.31,29.71-6.36.92-5.57-38.43,9.34-1.35,12.78,28.49.84-.12-4.31-29.71,6.36-.92,5.57,38.43-9.34,1.35-12.78-28.49Z"/>
    <path class="cls-4" d="M287.19,175.18l-11.07,1.6-.87-6.01,28.68-4.16.87,6.01-11.07,1.6,4.7,32.42-6.55.95-4.7-32.42Z"/>
  </g>
  <line class="cls-1" x1="129.3" y1="84.67" x2="153.89" y2="254.29"/>
  <path class="cls-4" d="M82.67,145.23l9.53,19.33c.15.3.47.47.8.42l21.33-3.09c.73-.11,1.17.79.64,1.3l-15.44,15.04c-.24.23-.3.59-.15.89l9.53,19.33c.33.66-.39,1.36-1.04,1.01l-19.07-10.04c-.29-.15-.65-.1-.89.13l-15.44,15.04c-.53.52-1.41.05-1.29-.68l3.65-21.24c.06-.33-.1-.65-.4-.81l-19.07-10.04c-.66-.34-.49-1.33.25-1.43l21.33-3.09c.33-.05.59-.3.64-.63l3.65-21.24c.13-.73,1.11-.87,1.44-.21Z"/>
  <rect class="cls-4" x="347.65" y="34.6" width="94.7" height="7.3" rx=".78" ry=".78" transform="translate(-1.4 57.06) rotate(-8.25)"/>
  <rect class="cls-4" x="349.9" y="48" width="94.7" height="11.48" rx=".78" ry=".78" transform="translate(-3.6 57.54) rotate(-8.25)"/>
  <rect class="cls-4" x="353.53" y="64.96" width="94.7" height="27.65" rx=".78" ry=".78" transform="translate(-7.16 58.32) rotate(-8.25)"/>
  <rect class="cls-4" x="358.15" y="101.93" width="94.7" height="17.48" rx=".78" ry=".78" transform="translate(-11.68 59.31) rotate(-8.25)"/>
  <rect class="cls-4" x="361.03" y="125.2" width="94.7" height="10.7" rx=".78" ry=".78" transform="translate(-14.5 59.93) rotate(-8.25)"/>
  <rect class="cls-4" x="364.62" y="147.38" width="94.7" height="15.91" rx=".78" ry=".78" transform="translate(-18.02 60.7) rotate(-8.25)"/>
  <rect class="cls-4" x="370.76" y="175.37" width="94.7" height="44.61" rx=".78" ry=".78" transform="translate(-24.03 62.02) rotate(-8.25)"/>
</svg>