<?xml version="1.0" encoding="UTF-8"?>
<svg id="Layer_1" data-name="Layer 1" xmlns="http://www.w3.org/2000/svg" viewBox="0 0 472.77 298.67">
  <defs>
    <style>
      .cls-1 {
        stroke-linecap: round;
        stroke-linejoin: round;
      }

      .cls-1, .cls-2 {
        fill: none;
        stroke-width: 6px;
      }

      .cls-1, .cls-2, .cls-3 {
        stroke: #1a1a1a;
      }

      .cls-2, .cls-3 {
        stroke-miterlimit: 10;
      }

      .cls-4, .cls-3 {
        fill: #1a1a1a;
      }

      .cls-3 {
        stroke-width: 4px;
      }
    </style>
  </defs>
  <path class="cls-2" d="M407.46,5.27l2.67,18.45c.2,1.36-.77,2.57-2.12,2.77h-.03c-8.39,1.22-13.93,9.71-11.19,18.16,2.12,6.55,8.96,10.53,15.73,9.27.04,0,.07,0,.1-.02,1-.19,1.96.53,2.1,1.54l2.33,16.06c.2,1.36-.77,2.57-2.12,2.77h-.03c-8.4,1.22-13.95,9.72-11.19,18.19,2.13,6.53,8.96,10.49,15.72,9.24.04,0,.07,0,.1-.02,1.01-.2,1.97.53,2.11,1.54l2.41,16.65c.15,1.03-.57,1.99-1.59,2.1-.04,0-.08,0-.12,0-6.83.72-12.24,6.45-12.43,13.32-.24,8.9,7.49,15.47,15.89,14.25h.03c1.35-.2,2.62.68,2.82,2.04l2.33,16.06c.15,1.02-.56,1.98-1.58,2.08-.04,0-.07,0-.11,0-6.85.72-12.28,6.47-12.45,13.36-.23,8.88,7.5,15.45,15.88,14.23h.03c1.35-.2,2.62.68,2.82,2.04l2.67,18.45c.21,1.45-.79,2.8-2.25,3.01l-399.18,56.72c-1.45.21-2.8-.8-3.01-2.25l-2.69-18.56c-.19-1.32.75-2.57,2.09-2.67,3.07-.24,6.25-1.52,9.06-4.37,1.8-1.83,3.05-4.16,3.49-6.68,1.8-10.03-6.54-17.89-15.64-16.57h-.04c-1.81.27-3.49-.99-3.75-2.8l-2-13.8c-.26-1.76.97-3.39,2.72-3.64l.13-.02c7.99-1.16,13.39-8.89,11.53-16.93-1.67-7.19-8.93-11.85-16.17-10.46l-.12.02c-1.36.28-2.68-.59-2.88-1.96l-2.32-15.97c-.17-1.19.71-2.27,1.91-2.34,2.12-.13,4.32-.75,6.4-2.04,4.32-2.67,6.91-7.58,6.6-12.64-.51-8.23-7.89-14.1-15.86-12.94h-.04c-1.81.27-3.49-.99-3.75-2.8l-2.2-15.2c-.16-1.08.65-2.07,1.75-2.13h.14c6.54-.38,12.06-5.26,12.94-11.76,1.3-9.7-6.85-17.18-15.75-15.88l-.13.02c-1.74.25-3.39-.97-3.64-2.72l-2.56-17.67c-.21-1.45.8-2.8,2.25-3.01L404.45,3.03c1.45-.21,2.8.8,3.01,2.25Z"/>
  <path class="cls-3" d="M428.93,61.77c2.14,6.6,9.03,10.6,15.86,9.34.04,0,.08-.01.1-.03,1.02-.2,1.98.54,2.12,1.55l2.35,16.2c.2,1.36-.78,2.59-2.15,2.78h-.02c-8.47,1.23-14.06,9.8-11.28,18.35,2.15,6.58,9.03,10.56,15.85,9.31.04,0,.08-.01.1-.02,1.02-.2,1.99.53,2.13,1.56l2.43,16.79c.15,1.04-.57,2.01-1.61,2.11-.04,0-.08.01-.11,0-6.89.73-12.35,6.52-12.54,13.44-.24,8.98,7.56,15.59,16.02,14.37h.02c1.37-.2,2.66.69,2.85,2.06l2.35,16.19c.15,1.03-.56,1.99-1.6,2.09-.03,0-.07,0-.11,0-6.9.73-12.38,6.53-12.55,13.47-.24,8.95,7.55,15.58,16.02,14.35h.02c1.37-.2,2.66.69,2.85,2.06l2.7,18.6c.21,1.46-.8,2.82-2.26,3.03l-402.89,57.26c-1.46.21-2.82-.81-3.03-2.26l-2.71-18.71c-.08-.54.03-1.06.28-1.51l375.89-53.35c1.46-.21,2.46-1.56,2.25-3.01l-2.67-18.45c-.2-1.36-1.47-2.24-2.82-2.05h-.03c-8.39,1.22-16.11-5.34-15.88-14.23.18-6.89,5.61-12.64,12.45-13.36.04,0,.07,0,.11,0,1.01-.1,1.73-1.06,1.58-2.08l-2.33-16.06c-.2-1.36-1.47-2.24-2.82-2.05h-.03c-8.4,1.22-16.12-5.34-15.89-14.25.19-6.87,5.6-12.6,12.43-13.32.04,0,.08-.01.12,0,1.02-.11,1.74-1.08,1.59-2.1l-2.41-16.65c-.15-1.02-1.1-1.74-2.11-1.54-.04.01-.07.02-.1.02-6.76,1.24-13.59-2.71-15.72-9.24-2.76-8.47,2.79-16.97,11.19-18.18h.03c1.35-.2,2.32-1.41,2.12-2.77l-2.33-16.06c-.15-1.02-1.1-1.74-2.1-1.54-.04.01-.07.02-.1.02-6.77,1.26-13.61-2.72-15.73-9.27-2.74-8.45,2.8-16.94,11.19-18.15h.03c1.35-.2,2.32-1.41,2.12-2.77v-.07s26.53-3.85,26.53-3.85c1.46-.21,2.82.81,3.03,2.27l2.7,18.6c.2,1.36-.78,2.59-2.15,2.78h-.02c-8.47,1.23-14.06,9.79-11.28,18.32Z"/>
  <line class="cls-1" x1="228.95" y1="45.36" x2="256.56" y2="226.44"/>
  <path class="cls-4" d="M126.77,96.22l17.57,35.62c.34.69,1.08,1.08,1.84.97l39.31-5.7c1.7-.25,2.72,1.83,1.49,3.02l-28.45,27.71c-.55.54-.69,1.36-.35,2.05l17.57,35.62c.76,1.54-.9,3.15-2.41,2.35l-35.15-18.5c-.68-.36-1.51-.24-2.06.3l-28.45,27.71c-1.23,1.2-3.27.12-2.98-1.57l6.73-39.15c.13-.76-.24-1.51-.92-1.87l-35.15-18.5c-1.52-.8-1.13-3.08.57-3.32l39.31-5.7c.76-.11,1.36-.7,1.49-1.45l6.73-39.15c.29-1.69,2.58-2.02,3.34-.48Z"/>
  <rect class="cls-4" x="285.53" y="34.58" width="91.73" height="7.08" rx=".78" ry=".78" transform="translate(-2.04 47.93) rotate(-8.25)"/>
  <rect class="cls-4" x="287.71" y="47.56" width="91.73" height="11.12" rx=".78" ry=".78" transform="translate(-4.17 48.4) rotate(-8.25)"/>
  <rect class="cls-4" x="291.23" y="63.99" width="91.73" height="26.79" rx=".78" ry=".78" transform="translate(-7.61 49.15) rotate(-8.25)"/>
  <rect class="cls-4" x="295.7" y="99.8" width="91.73" height="16.93" rx=".78" ry=".78" transform="translate(-12 50.12) rotate(-8.25)"/>
  <rect class="cls-4" x="298.49" y="122.35" width="91.73" height="10.36" rx=".78" ry=".78" transform="translate(-14.73 50.72) rotate(-8.25)"/>
  <rect class="cls-4" x="301.97" y="143.83" width="91.73" height="15.42" rx=".78" ry=".78" transform="translate(-18.14 51.46) rotate(-8.25)"/>
  <rect class="cls-4" x="307.92" y="170.95" width="91.73" height="43.21" rx=".78" ry=".78" transform="translate(-23.96 52.74) rotate(-8.25)"/>
</svg>