<?xml version="1.0" encoding="UTF-8"?>
<svg id="Layer_1" data-name="Layer 1" xmlns="http://www.w3.org/2000/svg" viewBox="0 0 225.78 219.13">
  <defs>
    <style>
      .cls-1 {
        fill: #1a1a1a;
      }
    </style>
  </defs>
  <g>
    <path class="cls-1" d="M225.06.87v31.92c0,.48-.39.87-.87.87h-11.27c-.48,0-.87-.39-.87-.87V13.87c0-.48-.39-.87-.87-.87h-21.53c-.48,0-.87-.39-.87-.87V.87c0-.48.39-.87.87-.87h34.53c.48,0,.87.39.87.87Z"/>
    <path class="cls-1" d="M225.06,186.35v31.92c0,.48-.39.87-.87.87h-34.53c-.48,0-.87-.39-.87-.87v-11.27c0-.48.39-.87.87-.87h21.53c.48,0,.87-.39.87-.87v-18.92c0-.48.39-.87.87-.87h11.27c.48,0,.87.39.87.87Z"/>
    <path class="cls-1" d="M36.98,207v11.27c0,.48-.39.87-.87.87H1.59c-.48,0-.87-.39-.87-.87v-31.92c0-.48.39-.87.87-.87h11.27c.48,0,.87.39.87.87v18.92c0,.48.39.87.87.87h21.53c.48,0,.87.39.87.87Z"/>
    <path class="cls-1" d="M36.98.87v11.27c0,.48-.39.87-.87.87H14.59c-.48,0-.87.39-.87.87v18.92c0,.48-.39.87-.87.87H1.59c-.48,0-.87-.39-.87-.87V.87c0-.48.39-.87.87-.87h34.53c.48,0,.87.39.87.87Z"/>
  </g>
  <g>
    <g>
      <path class="cls-1" d="M112.89,67.02c-21.26,0-38.8,15.85-41.5,36.37h83c-2.69-20.52-20.24-36.37-41.5-36.37Z"/>
      <path class="cls-1" d="M112.89,150.76c21.26,0,38.8-15.85,41.5-36.37h-83c2.69,20.52,20.24,36.37,41.5,36.37Z"/>
      <path class="cls-1" d="M225.34,103.39h-70.95c.24,1.8.37,3.63.37,5.5s-.13,3.7-.37,5.5h70.95c.24,0,.44-.2.44-.44v-10.12c0-.24-.2-.44-.44-.44Z"/>
      <path class="cls-1" d="M71.39,103.39H.44c-.24,0-.44.2-.44.44v10.12c0,.24.2.44.44.44h70.95c-.24-1.8-.37-3.63-.37-5.5s.13-3.7.37-5.5Z"/>
    </g>
    <path class="cls-1" d="M191.31,110.05c-14.61-29.36-43.96-48.13-76.61-49-34.62-.93-68.59,24.68-80.2,48.92l-9.92-4.75c13.38-27.94,50.85-56.21,90.41-55.17,36.73.97,69.75,22.08,86.17,55.09l-9.85,4.9Z"/>
    <path class="cls-1" d="M112.87,169.1c-38.77,0-75.14-27.76-88.28-55.2l9.92-4.75c11.61,24.24,45.58,49.82,80.2,48.92,32.65-.86,62.01-19.63,76.61-49l9.85,4.9c-16.42,33.01-49.44,54.12-86.17,55.09-.71.02-1.42.03-2.13.03Z"/>
  </g>
</svg>