<?xml version="1.0" encoding="UTF-8"?>
<svg id="Layer_1" data-name="Layer 1" xmlns="http://www.w3.org/2000/svg" viewBox="0 0 269 264.68">
  <defs>
    <style>
      .cls-1 {
        stroke: #1a1a1a;
        stroke-miterlimit: 10;
        stroke-width: 2px;
      }

      .cls-1, .cls-2 {
        fill: #1a1a1a;
      }
    </style>
  </defs>
  <path class="cls-1" d="M263.27,167.24L44.42,103.75c-3.47-1.01-7.12,1-8.12,4.48l-13.81,47.6c-1.01,3.48,1,7.12,4.47,8.13l218.85,63.48c3.48,1.01,7.12-1,8.13-4.47l13.81-47.6c1.01-3.48-1-7.12-4.48-8.13ZM249.99,221.82c-.38,1.3-1.74,2.05-3.04,1.67L28.1,160.01c-1.3-.38-2.04-1.74-1.66-3.03l13.81-47.6c.38-1.3,1.73-2.05,3.03-1.67l218.85,63.48c1.3.38,2.05,1.74,1.67,3.04l-13.81,47.6Z"/>
  <path class="cls-2" d="M192.38,146.67l-67.36-19.54c1.45-5.4,2.8-11.48,4.1-18.45,2.38-12.78,1.96-18.64,1.52-27.26-.53-10.68-2.44-23.98-4.32-28.17-1.51-3.38-1.34-3.66-2.6-4.53-1.65-1.14-4.86-.12-6.32.43-2.53.94-8.88,4.33-14.96,4.77-1.74.13-4.51.34-7.25-1.2-4.28-2.41-5.52-7.41-6.73-12.23-1.14-4.59-.5-6.24-.26-6.78,1.28-2.92,4.48-4.11,5.79-4.57,14.44-5.11,13.86-7.3,21.2-9.93,19.25-6.9,21.22-14.06,39.1-17.71,4.93-1.01,9.97-2.94,11.96.34,3.22,5.29,9.28,14.49,9.54,21.03.06,1.53.03,2.99-2.1,5.7-2.97,3.79-6.97,4.61-15.35,6.71-3.6.9-9.15,2.32-16.17,4.26-.43.12-.69.55-.59.99.6,2.45,1.83,5.89,4.56,9.09,1.85,2.16,3.69,3.4,4.64,4.03,6.46,4.26,14.42,10.26,18.21,13.49,5.64,4.81,14.02,14.62,18.02,30.86,2.69,10.94,6.64,27.6,5.37,48.68Z"/>
  <path class="cls-2" d="M175.83,207.14c-4.64,8.34-10.81,16.82-19.1,24.72-21.66,20.61-45.64,25.63-64.43,29.56-44.99,9.42-75.31-3.83-83.95-10.94-1.96-1.61-7.55-6.23-8.26-13.13-.09-.85-.66-6.45,2.87-9.89,1.87-1.82,4.13-2.29,5.2-2.51,6.41-1.36,12.73-3.16,18.94-5.23,17.56-5.86,31.32-12.95,39.09-17.71,6.55-4.02,16.2-9.89,26.03-19.12l83.6,24.25Z"/>
  <path class="cls-2" d="M129.13,134.57l56.9,16.5c-.39,4.03-.97,8.08-1.74,12.07-1.6,8.38-4.26,22.32-11.49,36.87l-69.27-20.09c3.3-3.66,6.38-7.54,9.18-11.56,5.65-8.12,11.53-17.83,16.43-33.79M125.02,127.13c-.36,1.37-.74,2.68-1.11,3.96-4.35,14.81-9.5,24.31-16.14,33.84-3.89,5.59-8.02,10.43-12.18,14.66-1.12,1.15-2.25,2.25-3.37,3.3l83.6,24.25c.69-1.24,1.34-2.48,1.97-3.71,7.87-15.54,10.68-30.2,12.39-39.17.89-4.63,1.5-9.1,1.89-13.4.13-1.42.23-2.81.31-4.19l-67.36-19.54h0Z"/>
</svg>