<?xml version="1.0" encoding="UTF-8"?>
<svg id="Layer_1" data-name="Layer 1" xmlns="http://www.w3.org/2000/svg" viewBox="0 0 325.85 321.81">
  <defs>
    <style>
      .cls-1 {
        fill: #1a1a1a;
      }
    </style>
  </defs>
  <path class="cls-1" d="M320.09,203.33L54.01,126.15c-4.22-1.22-8.65,1.22-9.88,5.44l-16.79,57.87c-1.23,4.23,1.22,8.66,5.43,9.88l266.08,77.18c4.23,1.23,8.66-1.22,9.89-5.44l16.79-57.87c1.23-4.23-1.22-8.66-5.44-9.89ZM303.94,269.7c-.46,1.58-2.12,2.49-3.69,2.03L34.17,194.55c-1.58-.46-2.48-2.11-2.02-3.69l16.79-57.87c.46-1.57,2.11-2.49,3.68-2.03l266.08,77.18c1.58.46,2.49,2.12,2.03,3.69l-16.79,57.87Z"/>
  <path class="cls-1" d="M233.91,178.33l-81.9-23.76c1.76-6.56,3.4-13.95,4.99-22.43,2.89-15.54,2.38-22.66,1.85-33.15-.65-12.98-2.97-29.15-5.25-34.25-1.84-4.1-1.63-4.45-3.16-5.51-2-1.38-5.9-.14-7.69.52-3.08,1.15-10.79,5.26-18.18,5.79-2.12.16-5.48.41-8.81-1.46-5.2-2.92-6.72-9.01-8.18-14.87-1.38-5.58-.61-7.59-.32-8.24,1.56-3.55,5.45-5,7.04-5.56,17.56-6.21,16.85-8.88,25.78-12.08,23.4-8.39,25.81-17.1,47.54-21.53,6-1.23,12.12-3.58,14.54.42,3.91,6.43,11.29,17.62,11.59,25.57.08,1.85.04,3.63-2.55,6.93-3.62,4.6-8.48,5.61-18.66,8.16-4.38,1.09-11.13,2.82-19.66,5.18-.52.14-.84.67-.71,1.2.73,2.98,2.22,7.16,5.54,11.05,2.25,2.63,4.49,4.13,5.64,4.9,7.86,5.17,17.54,12.48,22.14,16.41,6.86,5.85,17.04,17.77,21.91,37.52,3.27,13.3,8.07,33.56,6.53,59.18Z"/>
  <path class="cls-1" d="M213.78,251.85c-5.64,10.14-13.14,20.45-23.22,30.05-26.33,25.06-55.49,31.16-78.33,35.94-54.7,11.46-91.57-4.65-102.07-13.3-2.38-1.96-9.18-7.58-10.04-15.96-.11-1.03-.8-7.84,3.49-12.02,2.28-2.21,5.02-2.78,6.32-3.05,7.79-1.66,15.47-3.84,23.03-6.35,21.35-7.12,38.08-15.74,47.53-21.53,7.97-4.88,19.69-12.03,31.65-23.25l101.65,29.49Z"/>
  <path class="cls-1" d="M155.46,160.78h0s73.18,21.23,73.18,21.23c-.03.32-.06.64-.08.97-.48,5.27-1.23,10.59-2.23,15.81-2,10.47-5.34,28-14.61,46.3-.14.28-.28.55-.43.84l-89.62-26c4.9-5.17,9.43-10.72,13.48-16.54,7.01-10.08,14.33-22.21,20.32-42.61M152,154.57c-.44,1.66-.89,3.26-1.34,4.82-5.29,18.01-11.55,29.55-19.62,41.14-4.73,6.79-9.75,12.69-14.81,17.82-1.36,1.4-2.73,2.74-4.1,4.02l101.65,29.49c.83-1.51,1.63-3.01,2.39-4.51,9.57-18.89,12.98-36.72,15.06-47.62,1.08-5.63,1.83-11.07,2.3-16.29.16-1.72.28-3.42.38-5.1l-81.9-23.76h0Z"/>
</svg>