<?xml version="1.0" encoding="UTF-8"?>
<svg id="Layer_1" data-name="Layer 1" xmlns="http://www.w3.org/2000/svg" viewBox="0 0 230.5 243.43">
  <defs>
    <style>
      .cls-1, .cls-2 {
        fill: none;
      }

      .cls-2 {
        stroke: #1a1a1a;
        stroke-miterlimit: 10;
        stroke-width: 5px;
      }

      .cls-3 {
        fill: #fff;
      }

      .cls-4 {
        fill: #1a1a1a;
      }
    </style>
  </defs>
  <path class="cls-4" d="M203.48,100.59c0,74.61-65.22,138.26-123.65,138.26C36.52,238.85,0,203.89,0,139.72,0,82.85,52.17,6.02,121.7,6.02c45.78,0,81.78,30.91,81.78,94.57Z"/>
  <path class="cls-2" d="M228,99.34c0,76.41-71.4,141.59-135.38,141.59-47.41,0-87.4-35.8-87.4-101.52C5.22,81.18,62.34,2.5,138.46,2.5c50.13,0,89.54,31.66,89.54,96.84Z"/>
  <g>
    <path class="cls-3" d="M126.9,63.69c-.61-.02-1.22-.03-1.85-.03.93.07,1.83.32,2.73.36l.11-.3c-.33-.01-.66-.02-.99-.03ZM89.32,174.48c.94-.02,1.87-.05,2.79-.09.34,0,.67-.03,1-.06l.09-.25c-1.25.06-2.58.32-3.88.4Z"/>
    <path class="cls-3" d="M156.39,75.62c-1.2-3.82-4.4-6.77-9.6-8.85-3.28-1.3-7.56-2.21-12.83-2.69-.34-.03-.57-.38-.46-.7l8.18-22.44c.13-.34-.13-.71-.5-.71h-9.88c-.22,0-.42.14-.5.35l-8.27,22.72c-.08.21-.27.35-.5.35h-6.04c-.37,0-.62-.36-.5-.71l8-22c.13-.34-.13-.71-.5-.71h-9.88c-.22,0-.42.14-.5.35l-7.59,20.87c-.48,1.32-1.73,2.2-3.14,2.2h-30.39c-.22,0-.42.14-.5.35l-2.01,5.53c-.12.34.14.7.5.71,4.11.03,7.12.34,9.02.92,2.03.62,3.07,2,3.14,4.14.06,2.14-.7,5.4-2.3,9.78l-24.5,67.32c-1.6,4.39-3.2,7.71-4.8,9.95-1.61,2.25-3.68,3.77-6.22,4.56-2.46.77-5.92,1.16-10.35,1.18-.22,0-.42.14-.5.35l-1.95,5.36c-.13.34.13.71.5.71h29.4c1.43,0,2.42,1.42,1.93,2.76l-8.7,23.89c-.13.34.13.71.5.71h9.88c.22,0,.42-.14.5-.35l9.71-26.67c.08-.21.27-.35.5-.35h6.04c.37,0,.62.36.5.71l-9.44,25.94c-.13.34.13.71.5.71h9.88c.22,0,.42-.14.5-.35l9.87-27.17c-.33.03-.66.05-1,.06-.92.04-1.85.07-2.79.09,1.3-.08,2.63-.34,3.88-.4l-.09.25c11.02-.59,20.45-3.07,28.29-7.43,9.09-5.06,15.42-12.49,18.99-22.27,2.41-6.64,2.86-11.9,1.35-15.78-1.51-3.88-4.18-6.83-8-8.85-3.81-2.03-8.02-3.38-12.61-4.05l.37-1.02c7.89-1.91,14.81-4.78,20.76-8.6s10.29-9.5,13.04-17.04c1.92-5.29,2.28-9.84,1.09-13.67ZM124.63,63.65c.11,0,.23,0,.34,0-.44,0-.89,0-1.34,0h1ZM88.68,174.49h-1c.53,0,1.05,0,1.57-.01-.19,0-.38.01-.57.01ZM116.09,144.63c-1.88,5.17-4.07,9.25-6.56,12.23-2.49,2.98-5.2,5.18-8.13,6.58-1.93.93-3.96,1.65-6.09,2.16h-.01c-1.09.26-2.2.47-3.35.62-.48.06-.96.12-1.44.18-.34.04-.69.08-1.04.11-1.86.19-3.74.31-5.63.36-.72.02-1.44.03-2.17.03-1.39,0-2.71-.03-3.96-.09-.47-.02-.93-.05-1.38-.08-1.34-.09-2.67-.18-4-.28-.31-.01-.63-.04-.94-.06l16.45-45.2c.08-.21.27-.35.5-.35h10.09c.73,0,1.45.01,2.15.05,1.86.07,3.63.26,5.3.55.32.05.63.11.94.17,1.33.26,2.59.59,3.79,1,.1.03.2.07.3.11,3.34,1.21,5.64,3.48,6.88,6.81,1.28,3.43.72,8.46-1.7,15.1ZM131.09,91.82c-2.7,7.43-6.24,12.74-10.61,15.94-1.44,1.06-3.14,1.94-5.08,2.65h-.01c-1.51.55-3.17,1-4.98,1.34-.35.06-.71.12-1.07.18-1.77.29-3.67.47-5.71.57-1.03.05-2.1.07-3.2.07h-8.7c-.37,0-.62-.36-.5-.71l14.35-39.44c.34-.05.68-.09,1.02-.12,1.29-.16,2.52-.25,3.69-.3.66-.03,1.31-.05,1.94-.06.79-.02,1.56-.03,2.31-.03,1.35,0,2.62.04,3.82.11,1.96.12,3.71.33,5.26.65.32.06.63.13.93.2,1.55.38,2.87.86,3.97,1.45,1.3.7,2.28,1.56,2.94,2.57,2.16,3.32,2.04,8.3-.38,14.93Z"/>
  </g>
  <g>
    <line class="cls-1" x1="88.94" y1="120.84" x2="72.33" y2="166.45"/>
    <line class="cls-1" x1="106.61" y1="72.3" x2="91.95" y2="112.57"/>
  </g>
  <g>
    <line class="cls-1" x1="124.56" y1="72.87" x2="110.41" y2="111.75"/>
    <line class="cls-1" x1="106.82" y1="121.61" x2="90.51" y2="166.4"/>
    <line class="cls-1" x1="127.9" y1="63.69" x2="127.89" y2="63.72"/>
    <path class="cls-3" d="M127.89,63.72l-.11.3c-.9-.04-1.8-.29-2.73-.36.63,0,1.24.01,1.85.03.33.01.66.02.99.03Z"/>
    <path class="cls-3" d="M93.2,174.08l-.09.25c-.33.03-.66.05-1,.06-.92.04-1.85.07-2.79.09,1.3-.08,2.63-.34,3.88-.4Z"/>
  </g>
</svg>