<?xml version="1.0" encoding="UTF-8"?>
<svg id="Layer_1" data-name="Layer 1" xmlns="http://www.w3.org/2000/svg" viewBox="0 0 393.61 116">
  <defs>
    <style>
      .cls-1 {
        fill: none;
        stroke: #1a1a1a;
        stroke-linecap: round;
        stroke-linejoin: round;
        stroke-width: 8px;
      }

      .cls-2 {
        fill: #1a1a1a;
      }
    </style>
  </defs>
  <path class="cls-2" d="M86.56,8.17c-15.84,0-24.25,12.01-26.63,16.06-.33.56-1.13.54-1.46-.02-1.57-2.7-3.51-5.17-5.76-7.35-5.51-5.56-13.02-8.69-20.85-8.68C12.8,8.18-2.99,23.72.48,46.99c3.45,23.15,26.52,42.25,58.27,62.98.28.18.65.18.93,0,15.79-10.3,29.44-20.22,39.6-30.43,10.25-10.34,16.93-20.92,18.67-32.57,3.46-23.25-12.33-38.8-31.39-38.8Z"/>
  <path class="cls-1" d="M259.3,112l-12.44-29.54c4.66-7.78,7.35-16.88,7.35-26.61,0-28.63-23.21-51.85-51.85-51.85s-51.85,23.21-51.85,51.85,23.21,51.85,51.85,51.85c9.67,0,18.71-2.65,26.45-7.26l30.48,11.56Z"/>
  <polygon class="cls-1" points="277.3 14.96 389.61 14.96 320.22 54.35 277.3 14.96"/>
  <polygon class="cls-1" points="320.22 54.35 328.04 111.74 389.61 14.96 320.22 54.35"/>
</svg>