<?xml version="1.0" encoding="UTF-8"?>
<svg id="Layer_1" data-name="Layer 1" xmlns="http://www.w3.org/2000/svg" viewBox="0 0 432.79 164.46">
  <defs>
    <style>
      .cls-1 {
        fill: #1a1a1a;
      }
    </style>
  </defs>
  <g>
    <path class="cls-1" d="M18.27,54.82H0v-18.27h18.27v18.27ZM54.82,127.91H0v-18.27h63.96v18.27h-9.14ZM73.09,36.55H18.27v-18.27h63.96v18.27h-9.14ZM63.96,73.09H18.27v-18.27h45.68v18.27ZM63.96,109.64v-36.55h18.27v36.55h-18.27Z"/>
    <path class="cls-1" d="M109.64,109.64h-18.27V36.55h18.27v73.09ZM182.73,54.82h-9.14v-18.27h-63.96v-18.27h73.09v18.27h9.14v18.27h-9.14ZM173.6,127.91h-63.96v-18.27h63.96v-18.27h18.27v18.27h-9.14v18.27h-9.14Z"/>
    <path class="cls-1" d="M230.98,127.91h-27.41v-18.27h9.14V36.55h-9.14v-18.27h36.55v18.27h-9.14v73.09h9.14v18.27h-9.14Z"/>
    <path class="cls-1" d="M304.07,127.91h-9.14V18.27h82.23v18.27h-63.96v18.27h36.55v18.27h-36.55v54.82h-9.14Z"/>
    <path class="cls-1" d="M414.51,127.91h-27.41v-18.27h9.14V36.55h-9.14v-18.27h36.55v18.27h-9.14v73.09h9.14v18.27h-9.14Z"/>
  </g>
  <rect class="cls-1" x="246.84" y="74.32" width="35.35" height="17.12"/>
</svg>