<?xml version="1.0" encoding="UTF-8"?>
<svg id="Layer_1" data-name="Layer 1" xmlns="http://www.w3.org/2000/svg" viewBox="0 0 236.23 266.72">
  <defs>
    <style>
      .cls-1 {
        fill: #1a1a1a;
      }
    </style>
  </defs>
  <path class="cls-1" d="M204.97,266.72c-.34,0-.69-.03-1.04-.1l-96.11-18.82c-2.83-.55-4.69-3.31-4.13-6.14l8.02-40.94-80.17-15.7c-2.69-.53-4.53-3.07-4.19-5.79l6.42-51.42-29.82-7.56c-1.56-.39-2.83-1.46-3.49-2.92-.66-1.47-.62-3.13.12-4.56,13.93-27.07,30.38-51.9,48.87-73.8,12.26-14.52,18.37-19.53,23.15-22.78C109.02-8.58,152.4,2.19,157.23,3.5l.28.08c26.07,7.07,45.75,19.93,58.48,38.23,13.25,19.05,16.73,40.15,18.04,48.09l.19,1.17c.07.5,1.6,12.28,1.87,17.46,1.94,37.59-16.86,115.86-23.94,145.33-.93,3.88-1.65,6.88-2.09,8.8-.55,2.43-2.68,4.07-5.08,4.07ZM205.66,257.79h.01s0,0-.01,0ZM113.25,239.7l88.86,17.4c.36-1.53.79-3.32,1.28-5.35,7-29.12,25.58-106.46,23.7-142.76-.24-4.63-1.66-15.66-1.79-16.68l-.16-.95c-1.22-7.39-4.45-27.04-16.54-44.42-11.49-16.52-29.47-28.18-53.45-34.68l-.28-.08c-4.42-1.2-44.12-11.06-77.2,11.45-2.65,1.81-8.18,5.56-21.34,21.14-17.1,20.25-32.41,43.08-45.56,67.92l28.43,7.21c2.56.65,4.24,3.11,3.91,5.72l-6.39,51.24,80.42,15.74c2.83.55,4.69,3.31,4.13,6.14l-8.02,40.95Z"/>
  <path class="cls-1" d="M193.12,93.2l-35.64,12.22,28.4,24.75c1.39,1.21,1.53,3.31.33,4.69l-14.4,16.52c-1.21,1.39-3.31,1.53-4.69.32l-28.4-24.75-7.24,36.97c-.36,1.81-2.1,2.98-3.91,2.63l-21.5-4.21c-1.8-.36-2.98-2.1-2.63-3.91l7.24-36.97-35.64,12.22c-1.73.6-3.63-.33-4.22-2.07l-7.11-20.73c-.59-1.73.33-3.63,2.07-4.22l35.64-12.22-28.4-24.75c-1.39-1.21-1.53-3.31-.32-4.7l14.39-16.52c1.21-1.38,3.31-1.53,4.7-.32l28.4,24.76,7.24-36.98c.35-1.8,2.1-2.97,3.9-2.62l21.5,4.21c1.81.35,2.98,2.1,2.63,3.9l-7.24,36.98,35.64-12.22c1.74-.6,3.63.33,4.22,2.06l7.11,20.73c.6,1.74-.33,3.63-2.07,4.23Z"/>
</svg>