<?xml version="1.0" encoding="UTF-8"?>
<svg id="Layer_1" data-name="Layer 1" xmlns="http://www.w3.org/2000/svg" viewBox="0 0 260.71 234">
  <defs>
    <style>
      .cls-1, .cls-2 {
        fill: none;
        stroke: #fff;
        stroke-linecap: round;
        stroke-linejoin: round;
      }

      .cls-1, .cls-3 {
        stroke-width: 4px;
      }

      .cls-2 {
        stroke-width: 3px;
      }

      .cls-4 {
        fill: #fff;
      }

      .cls-4, .cls-3, .cls-5 {
        stroke: #1a1a1a;
        stroke-miterlimit: 10;
      }

      .cls-4, .cls-5 {
        stroke-width: 6px;
      }

      .cls-3, .cls-5 {
        fill: #1a1a1a;
      }
    </style>
  </defs>
  <rect class="cls-5" x="26.15" y="26.51" width="231.55" height="204.49" rx="32.37" ry="32.37"/>
  <rect class="cls-4" x="3" y="3" width="231.55" height="204.49" rx="32.37" ry="32.37"/>
  <path d="M96.12,31.01c-41.54,0-75.35,33.8-75.35,75.35s33.8,75.35,75.35,75.35,75.35-33.8,75.35-75.35S137.67,31.01,96.12,31.01ZM130.26,143.76c2.97-10.15,4.72-21.83,4.96-34.39h30.06c-.69,15.73-6.56,30.12-16.05,41.44-5.6-2.87-12-5.24-18.98-7.05h0ZM43,150.82c-9.49-11.32-15.36-25.71-16.05-41.44h30.06c.24,12.55,2,24.23,4.96,34.39-6.98,1.82-13.37,4.18-18.98,7.05h0ZM61.98,68.96c-2.97,10.15-4.72,21.83-4.96,34.39h-30.06c.69-15.73,6.56-30.12,16.05-41.44,5.6,2.87,12,5.24,18.98,7.05h0ZM99.14,73.12c8.69-.18,17.17-1.12,25.11-2.75,2.91,9.75,4.69,21.01,4.95,32.97h-30.06v-30.22ZM99.14,67.1v-29.72c9.33,1.86,17.67,12.23,23.2,27.25-7.33,1.46-15.15,2.31-23.2,2.48h0ZM93.11,37.37v29.72c-8.04-.17-15.87-1.02-23.2-2.48,5.53-15.01,13.86-25.39,23.2-27.25h0ZM93.11,73.12v30.22h-30.06c.26-11.96,2.04-23.23,4.95-32.97,7.94,1.63,16.42,2.57,25.11,2.75h0ZM63.04,109.37h30.06v30.22c-8.69.18-17.17,1.12-25.11,2.75-2.91-9.75-4.69-21.01-4.95-32.97h0ZM93.11,145.63v29.72c-9.33-1.86-17.67-12.23-23.2-27.25,7.33-1.46,15.15-2.31,23.2-2.48h0ZM99.14,175.35v-29.72c8.04.17,15.87,1.02,23.2,2.48-5.53,15.01-13.86,25.39-23.2,27.25h0ZM99.14,139.6v-30.22h30.06c-.26,11.96-2.04,23.23-4.95,32.97-7.94-1.64-16.42-2.57-25.11-2.75h0ZM135.23,103.35c-.24-12.55-2-24.23-4.96-34.39,6.98-1.82,13.38-4.18,18.98-7.05,9.48,11.32,15.36,25.71,16.05,41.44h-30.06ZM145.03,57.29c-4.95,2.39-10.56,4.38-16.61,5.93-3.54-9.91-8.3-18.02-13.89-23.62,11.68,3.22,22.15,9.36,30.51,17.69h0ZM63.83,63.22c-6.06-1.55-11.66-3.54-16.61-5.93,8.34-8.33,18.83-14.47,30.51-17.69-5.59,5.6-10.35,13.71-13.89,23.62h0ZM47.21,155.43c4.95-2.39,10.56-4.38,16.61-5.93,3.54,9.91,8.3,18.02,13.88,23.62-11.67-3.22-22.14-9.36-30.5-17.69h0ZM128.42,149.5c6.06,1.55,11.66,3.54,16.61,5.93-8.35,8.32-18.83,14.47-30.51,17.69,5.59-5.6,10.35-13.71,13.89-23.62h0Z"/>
  <g>
    <path class="cls-3" d="M193.55,51.08l-13.38,23.17c-1.05,1.81.26,4.08,2.35,4.08h26.75c2.09,0,3.4-2.27,2.35-4.08l-13.38-23.17c-1.05-1.81-3.66-1.81-4.71,0Z"/>
    <line class="cls-2" x1="195.83" y1="57.32" x2="195.83" y2="66.3"/>
    <line class="cls-1" x1="195.83" y1="72.91" x2="195.83" y2="72.99"/>
  </g>
  <circle class="cls-5" cx="28.34" cy="28.5" r="3.76"/>
  <circle class="cls-5" cx="208.12" cy="28.5" r="3.76"/>
  <circle class="cls-5" cx="28.34" cy="181.62" r="3.76"/>
  <circle class="cls-5" cx="208.12" cy="181.62" r="3.76"/>
  <line class="cls-5" x1="224.53" y1="11.94" x2="247.58" y2="35.4"/>
  <line class="cls-5" x1="12.62" y1="198.14" x2="35.85" y2="221.67"/>
</svg>