<?xml version="1.0" encoding="UTF-8"?>
<svg id="Layer_1" data-name="Layer 1" xmlns="http://www.w3.org/2000/svg" viewBox="0 0 272.69 185.83">
  <defs>
    <style>
      .cls-1 {
        fill: #f0f;
      }

      .cls-2 {
        stroke: #1a1a1a;
        stroke-miterlimit: 10;
        stroke-width: 4px;
      }

      .cls-2, .cls-3 {
        fill: none;
      }

      .cls-3 {
        stroke: #fff;
        stroke-linecap: round;
        stroke-linejoin: round;
        stroke-width: 6px;
      }

      .cls-4 {
        fill: #1a1a1a;
      }
    </style>
  </defs>
  <path class="cls-4" d="M157.37,115.82l10.11,49.87c2.48,12.22-9.21,22.54-21.03,18.58l-49.45-16.58c-7-2.35-12.21-8.25-13.67-15.48l-1.96-9.66c-.39-1.93-1.53-3.98-3.05-5.74-1.53-1.76-3.44-3.23-5.38-3.99-3.87-1.53-6.39.36-5.61,4.2l1.64,8.1c1.27,6.28-4.73,11.58-10.8,9.54l-36.51-12.24c-5.49-1.85-9.58-6.48-10.73-12.14L.53,78.97c-2.28-11.27,8.49-20.78,19.38-17.13l127.56,42.79c5.06,1.7,8.83,5.96,9.89,11.19Z"/>
  <path class="cls-4" d="M182,98.67l10.11,49.87c1.65,8.16.09,12.26-7.3,19.04l-3.38-3.69c6.1-5.59,7.07-8,5.78-14.36l-10.11-49.87c-.15-.76-.38-1.51-.67-2.21-1.34-3.31-4.09-5.95-7.55-7.11l-75.93-25.46-51.63-17.32c-3.46-1.16-7.07-.79-10.18,1.02l-.06-.11-2.47-4.21c3.66-2.13,7.8-2.84,11.89-2.06.81.15,1.61.36,2.41.62l56.14,18.83,71.42,23.95c4.88,1.64,8.75,5.37,10.63,10.07.39.96.69,1.96.9,3Z"/>
  <path class="cls-2" d="M189.47,152.89c15.23-6.45,36.2-18.01,55.36-38.53,10.51-11.26,17.1-18.69,22.43-28.43,2.46-4.49,4.05-15.74,3.2-20.78,0-.03,0-.06-.01-.09-2.52-14.94-6.55-27.08-13.45-36.38"/>
  <rect class="cls-4" x="191.52" y="106.31" width="7.34" height="21.4" rx="3.67" ry="3.67" transform="translate(-19.36 41.11) rotate(-11.46)"/>
  <path class="cls-1" d="M220.54,3.37c-22.27-4.93-50.45-4.44-79.33,1.39l-1.07.22c-41.36,8.38-66.91,16.18-99.65,37.22-2.43,1.56-4.89,3.19-7.4,4.9l-2.02,1.38.06.11c3.11-1.81,6.72-2.18,10.18-1.02l51.63,17.32c2.02-1.11,4.05-2.19,6.1-3.23,17.45-8.88,35.95-15.24,55.22-18.95,21.87-4.22,35.59-6.31,63.05-.23,12.55,2.77,21.21,7.26,29.5,15.39-11.82,12.68-34.04,25.52-65.72,37.81-1.53.6-3.09,1.2-4.67,1.78.3.71.52,1.45.67,2.21l.34,1.7c1.61-.6,3.18-1.21,4.74-1.81,69.67-26.91,81.33-51.21,78.04-67.41-2.74-13.51-16.83-23.72-39.69-28.77Z"/>
  <path class="cls-4" d="M260.22,32.14c3.28,16.2-8.37,40.5-78.04,67.41-1.55.6-3.12,1.2-4.74,1.81l-.34-1.7c-.15-.76-.38-1.51-.67-2.21,1.58-.58,3.14-1.19,4.67-1.78,31.68-12.29,53.9-25.13,65.72-37.81-8.3-8.12-16.95-12.61-29.5-15.39-27.46-6.07-41.18-3.99-63.05.23-19.27,3.71-37.76,10.06-55.22,18.95-2.05,1.04-4.08,2.11-6.1,3.23l-51.63-17.32c-3.46-1.16-7.07-.79-10.18,1.02l-.06-.11,2.02-1.38c2.51-1.71,4.98-3.34,7.4-4.9C73.24,21.16,98.79,13.36,140.14,4.97l1.07-.22c28.88-5.82,57.05-6.32,79.33-1.39,22.86,5.05,36.95,15.26,39.69,28.77Z"/>
  <path class="cls-3" d="M25.86,96.45c5.14,10.12,10.29,20.23,15.43,30.35"/>
  <path class="cls-3" d="M51.37,93.1c-7.22,7.12-14.69,15.51-21.88,25.32-2.14,2.93-4.15,5.82-6.03,8.68"/>
  <path class="cls-3" d="M100.97,121.16c4.07,4.88,8.58,11,12.85,18.44,4.47,7.77,7.58,15.04,9.77,21.22"/>
  <path class="cls-3" d="M101.64,156.32c3.9-5.87,9.36-12.93,16.83-19.98,5.96-5.63,11.8-9.94,16.88-13.2"/>
  <path class="cls-4" d="M.44,78.02c-.49-1.48-.9-5.27.7-10.04.95-2.81,3.81-5.95,6.12-8.47l.09-.1c1.21-1.32,3.46-3.79,9.93-8.01l.83-.54c2.58-1.69,2.74-1.79,10.7-6.71l2.63,4.25c-7.91,4.9-8.01,4.96-10.6,6.65l-.83.54c-5.94,3.87-7.91,6.03-8.97,7.19l-.09.1c-1.78,1.95-4.46,4.89-5.07,6.7-1.23,3.66-.86,6.39-.7,6.86l-4.74,1.58Z"/>
  <path class="cls-4" d="M158.55,185.49c-.12.02-.24.05-.36.07-4.53.83-8.75-.5-11.28-1.29-.49-.15-.91-.29-1.23-.37l1.18-4.86c.41.1.93.26,1.55.46,2.21.69,5.56,1.75,8.87,1.14,3.38-.61,6.19-2.34,7.31-3.25,2.98-2.43,4.9-3.89,6.6-5.19,2.81-2.14,5.24-3.98,11.46-9.48l3.31,3.75c-6.36,5.62-8.86,7.51-11.75,9.71-1.67,1.27-3.56,2.71-6.47,5.08-1.8,1.47-5.26,3.43-9.21,4.23Z"/>
</svg>